<?xml version="1.0" encoding="UTF-8"?>
<svg id="svg" xmlns="http://www.w3.org/2000/svg" version="1.1" viewBox="0 0 400 400">
  <!-- Generator: Adobe Illustrator 29.1.0, SVG Export Plug-In . SVG Version: 2.1.0 Build 142)  -->
  <defs>
    <style>
      .st0 {
        fill-rule: evenodd;
      }

      .st0, .st1 {
        fill: #fff;
      }

      .st2 {
        fill: #045494;
      }

      .st3 {
        display: none;
      }
    </style>
  </defs>
  <rect class="st3" width="400" height="400"/>
  <g id="svgg">
    <path class="st2" d="M194.1,285l-9.1-17.6h-16.3l-.5,1c-.3.5-4.5,8.7-9.4,18.1-4.9,9.4-8.9,17.2-8.9,17.3s3.5,0,7.7,0h7.7c0,0,1.4-3.1,1.4-3.1l1.4-3h17.7l1.3,3,1.3,3h7.7c0,0,7.7.1,7.7.1l-.3-.7c-.2-.4-4.4-8.5-9.4-18.2ZM176.9,288.8c-2.6,0-4.7,0-4.8,0,0,0,4.6-10.5,4.7-10.5,0,0,1.1,2.4,2.4,5.2l2.3,5.2h-4.7Z"/>
    <path class="st2" d="M254.6,272.1c0-.1,12-15.4,24.9-31.5l.4-.5h-25.4l-9,10.9-9,10.9h-8.1v-21.8h-19.2v63.8h19.2v-21.8h8.1l9,10.9,9,10.9h25.4l-.4-.5c-10.5-13.1-24.8-31.3-24.9-31.4Z"/>
    <path class="st2" d="M313.6,277.1v10.6c0,0-.7,1.1-.7,1.1-1.3,2.4-4,3.4-8.7,3.4s-7.4-1-8.7-3.4l-.6-1.1v-10.6c0,0-.1-10.5-.1-10.5h-12.8v9.8c0,14.4.4,17,3.5,20.9,6.8,8.6,29.5,8.9,37,.5,3.4-3.8,3.9-6.4,3.9-21v-10.2s-12.8,0-12.8,0v10.5Z"/>
    <path class="st2" d="M139.4,271.1c-.2,0,.1-.5.7-1.2,2.9-3.2,4.1-6.5,4.3-11.8.3-8.7-3-14.5-9.4-17-2.9-1.1-1.6-1.1-29.3-1h-23.3v63.9h53.5c0-.1,1.4-.6,1.4-.6,5.3-1.8,8.6-5.4,10.1-10.9.7-2.4.7-8.9,0-11.3-1.2-4.4-5-9.1-8.1-10.2ZM101.6,255.4h11.1c9.4,0,11.2,0,11.7.3,1.9,1,2.6,4,1.5,6.3-1.1,2.1,0,1.9-13,2h-11.3c0,0,0-8.6,0-8.6ZM127.6,288.6c-.5.1-5.3.2-13.3.2h-12.5s0-8.4,0-8.4h12.8c11.7,0,12.8,0,13.4.4,2.8,1.4,2.6,7-.4,7.8Z"/>
    <path class="st1" d="M105.7,327.2c-2.6-2.5-7.9-1.8-9.6,1.1l-.2.4-.2-.4c-1.3-2.2-4.4-3.3-7.1-2.3-1.3.5-2.5,1.3-3.1,2.1l-.4.6v-1.2s0-1.2,0-1.2h-3v16.8h3.2v-5.5c.2-5.9.2-6.2,1.4-7.6,1.7-2,5-1.8,6.1.3.5.9.5,1.1.5,6.8v5.9h3.2v-5.5c0,0,.1-5.6.1-5.6l.6-1.1c1.6-3.2,6.4-2.8,7.1.6.1.4.2,3.2.2,6.2v5.5h3.2v-5.6c0-7.1-.3-8.8-1.9-10.3Z"/>
    <path class="st1" d="M152.4,333.5c0-4.3-.2-4.7-1.6-6.1-1.5-1.5-5.2-2.2-7.7-1.5-1.3.4-2.9,1.1-3.6,1.7l-.5.4.9,1.1.9,1.1.9-.6c3.4-2.3,8-1.1,8,2.2v.6h-2.9c-6.1.4-8.6,2.1-8.6,6,0,3.3,2,5,5.8,5,2.5,0,3.7-.5,5-1.9l.9-1v2.6h2.7s0-2.9,0-2.9c0-1.6,0-4.6,0-6.6ZM149.6,335.7c0,3.1-1.7,4.8-4.8,4.8s-3.6-.8-3.6-2.5,2.2-3.1,6.5-3.2h1.9s0,.8,0,.8Z"/>
    <path class="st1" d="M126.2,335.6v-1.1c0-6.2-4.8-10.1-10.5-8.5-8.8,2.4-8.5,15.5.3,17.3,3.2.7,7.4-.6,9-2.8l.4-.6-1.2-.9-1.2-.9-.9.9c-3.2,3.1-9.5,1.2-9.5-2.8v-.5h13.6ZM112.5,333v-.6c.8-3.2,4.9-4.9,8-3.3,1.1.6,2,1.8,2.2,3.1v.9c.1,0-10.2,0-10.2,0Z"/>
    <path class="st1" d="M136.7,340c-.2.2-.8.3-1.8.3-2.5,0-2.7-.4-2.7-6.8v-4.5s4.6,0,4.6,0v-2.8h-4.6v-4.8h-3.2v4.8h-3.8v2.8h3.8v5.8c0,0,.1,5.8.1,5.8l.5.9c.8,1.4,1.9,1.9,4.5,1.9,2.8,0,2.9,0,2.9-2s0-1.5-.3-1.2Z"/>
    <path class="st1" d="M168.8,333.5c0-4.3-.2-4.7-1.6-6.1-1.5-1.5-5.2-2.2-7.7-1.5-1.3.4-2.9,1.1-3.6,1.7l-.5.4.9,1.1.9,1.1.9-.6c3.4-2.3,8-1.1,8,2.2v.6h-2.8c-6.1.4-8.6,2.1-8.6,6,0,3.3,2,5,5.8,5,2.5,0,3.7-.5,5-1.9l.9-1v2.6h2.7s0-2.9,0-2.9c0-1.6,0-4.6,0-6.6ZM166,335.7c0,3.1-1.7,4.8-4.8,4.8s-3.6-.8-3.6-2.5,2.2-3.1,6.5-3.2h1.8s0,.8,0,.8Z"/>
    <path class="st1" d="M189.3,325.9c-2.9-.8-6.5.2-7.9,2.1l-.4.5v-6.2s0-6.2,0-6.2h-3.2v27h3.2v-2.5l.7.8c1.7,1.7,4.8,2.5,7.4,1.8,8.6-2.2,8.7-15,.1-17.2ZM191.9,336.5c-1.5,5.1-9.1,5.1-10.6,0-1.6-5.4,3.4-9.8,8.1-7.2,2.3,1.3,3.4,4.3,2.5,7.2Z"/>
    <path class="st1" d="M287.1,317.9c-.4,0-1,0-1.2,0-2.4,1-1.7,4.5.9,4.5s3.2-4.3.3-4.6Z"/>
    <rect class="st1" x="285.2" y="326.2" width="3.2" height="16.8"/>
    <path class="st1" d="M306.3,330.1l-.7-1.3c-1.3-2.6-4.4-3.8-7.5-2.9-1.2.3-2.5,1.2-3.1,2.1l-.5.7v-2.5h-3.2v16.8h3.2v-4.9c0-7.8,1.2-9.9,5.2-9.4,3,.4,3.3,1.1,3.3,8.5v5.9h3.3v-6.5c0,0-.1-6.5-.1-6.5Z"/>
    <path class="st1" d="M322.8,326.2v2.3l-.7-.8c-1.7-1.7-5.1-2.5-7.6-1.8-7.9,2.2-8.5,13.7-.8,16.7,2.7,1.1,6.3.5,8.2-1.4l1.1-1.1v2.2c-.1,1.8-.2,2.3-.7,3.3-1.6,3.5-7.1,4-10.7,1l-.9-.8-1,1.3-1,1.3.4.4c4.1,3.8,12.4,3.4,15.5-.8,1.6-2.2,1.6-1.9,1.6-12.5v-9.4c0,0-3.2,0-3.2,0ZM319.2,339.9c-4.9,1.4-8.8-2.5-7.3-7.4,1-3.4,4.9-4.9,8.1-3.2,4.1,2.2,3.6,9.3-.8,10.6Z"/>
    <path class="st1" d="M213.4,335.6v-1.1c0-6.2-4.8-10.1-10.5-8.5-8.8,2.4-8.5,15.5.3,17.3,3.2.7,7.4-.6,9-2.8l.4-.6-1.2-.9-1.2-.9-.9.9c-3.2,3.1-9.5,1.2-9.5-2.8v-.5h13.6ZM199.8,333v-.6c.8-3.2,4.9-4.9,8-3.3,1.1.6,2,1.8,2.2,3.1v.9c.1,0-10.2,0-10.2,0Z"/>
    <path class="st1" d="M237.5,326.2h-1.7l-.5,1.6c-.3.9-1.1,3.8-1.9,6.3-.7,2.6-1.4,4.6-1.4,4.4,0-.2-1-3-2.1-6.3l-2-6h-1.7c0,0-1.7-.1-1.7-.1l-2.1,6.3-2.1,6.3-.3-1c-.2-.5-1.1-3.4-2-6.3l-1.7-5.3h-1.7c-1.5,0-1.7,0-1.6.3,0,.2,1.3,4,2.8,8.3l2.7,8h1.7c0,0,1.7.1,1.7.1l2.1-6.2c1.1-3.4,2.1-6.1,2.2-6.1,0,0,1.1,2.8,2.2,6.1l2.1,6h1.7c0,0,1.7.1,1.7.1l1.8-5.7c1.9-5.9,3.4-10.5,3.5-10.9,0-.2-.3-.2-1.6-.2Z"/>
    <rect class="st1" x="171.6" y="316" width="3.2" height="27"/>
    <path class="st1" d="M256,335.6v-1.1c0-6.2-4.8-10.1-10.5-8.5-8.8,2.4-8.5,15.5.3,17.3,3.2.7,7.4-.6,9-2.8l.4-.6-1.2-.9-1.2-.9-.9.9c-3.2,3.1-9.5,1.2-9.5-2.8v-.5h13.6ZM242.4,333v-.6c.8-3.2,4.9-4.9,8-3.3,1.1.6,2,1.8,2.2,3.1v.9c.1,0-10.2,0-10.2,0Z"/>
    <path class="st1" d="M275.8,333.8c0-.1,1.7-1.9,3.8-3.9l3.8-3.7h-4.4l-3.7,3.6-3.7,3.6v-17.5h-3.2v27h3.2v-4.3c0,0,.1-4.3.1-4.3l3.9,4.3,3.9,4.3h2.3c1.3,0,2.2,0,2.1-.2-.5-.3-8.3-8.8-8.3-9Z"/>
    <path class="st1" d="M267.1,325.7c-.5-.2-1.9-.1-2.8.2-1.2.4-2.2,1.1-2.9,2l-.6.8v-2.5h-3.2v16.8h3.2v-5c0-7.7,1.1-9.6,5.2-9.2h1.1c0,.1.1-.6.1-.6.2-1.4.1-2.4-.2-2.5Z"/>
  </g>
  <g id="svgg1" data-name="svgg">
    <path id="path0" class="st0" d="M212.9,41.6c0,0-.3.1-.7,0-.4,0-.7,0-.7.1s-.3.1-.6,0c-.4,0-.6,0-.5.1,0,.1,0,.2-.5.1-.3,0-.6,0-.6.1s-.1.2-.3,0c-.2,0-.3,0-.3.1s0,.2-.2.1c-.3-.2-2.9,1.1-3.7,1.8-.3.3-.6.5-.7.5s-.1,6.6-.2,14.8c0,8.1,0,17.4-.2,20.6-.1,4.9,0,5.9.1,5.9.2,0,.6.3,1,.6l.7.6-.4.5c-2.9,3.1-7.3,10.7-7.3,12.6,0,1,.6,2.2,1,2.2s.3,0,.3.2,0,.2.2,0c.1,0,.2,0,.2,0s.3.2.8.1c.4,0,.8,0,.8,0,0,.2,2.3.3,2.5,0,0,0,.4-.1.8-.2h.6s0,3.4,0,3.4c-.1,11.3,0,13.6.3,13.5.1,0,.2.1.2.3,0,.6,1.1,2.7,1.8,3.5.9,1,1.4,5.4.6,5.7-.1,0-.2.2-.1.3,0,.1,0,.2-.2.3-.2,0-.3.2-.2.3,0,0,0,.5,0,.8-.2.6-.3,2.1-.5,7.2,0,1-.1,2.2-.2,2.6-.4,3.5-.4,3.7,0,4.4.4.7.5,2.5.2,5.9-.1,1.4,0,2.2.6,3.2.2.4,2.3.7,2.3.3s0-.2.2-.2c0,0,.2,4.9.2,10.9v10.9c0,0-13,0-13,0-14.9,0-14.2,0-14.5-.9-.2-.4-1.3-1.7-2.6-3-1.3-1.3-2.4-2.5-2.5-2.7,0-.1-.2-.2-.3-.2-.1,0-1.4-.9-2.5-2-.1-.1-.6-.5-1-.8-.4-.3-.9-.7-1-.9-.1-.2-.2-.2-.2-.2,0,0-.2,0-.4-.3s-.6-.4-.8-.3c-.2,0-.4,0-.4-.1s0-.2-.1,0c-.1.1-.8-.4-1.6-1.2-.6-.6-3-1.9-3.5-1.9s-.4-.1-.4-.2-.2-.2-.4-.1c-.2,0-.4,0-.4,0s-.1-.2-.3,0c-.2,0-.3,0-.3,0,0-.2-2.1-.7-2.6-.5-.2,0-.4,0-.4,0s-.5-.2-1.3-.2-1.3,0-1.3.2-.2.1-.4,0c-.2,0-.5,0-.7.3-.3.3-.4.3-.5,0,0-.1-.3-.2-.4-.1s-.3,0-.3,0c0-.1-.3-.2-.4-.1-.2,0-.3,0-.3,0s0-.2-.2,0c-.1,0-.2,0-.2,0s0-.2-.1-.2c0,0-.2,0-.3,0,0,0-.2,0-.3,0-.2,0-1.3-.5-1.7-.7-.2,0-1.5-.3-2.9-.5-1.4-.2-2.8-.4-3.1-.5-.9-.3-3.8-1.1-3.8-1s-.1,0-.3-.1c-.2-.1-.4-.2-.6-.2-.1,0-.5,0-.8-.2-.3-.1-.7-.2-.8-.1-.1,0-.3,0-.4-.1,0-.1-.4-.2-.8-.2-.3,0-.8,0-1-.1-.2,0-.6,0-.9,0-.3,0-.5,0-.5,0s-1.2-.2-2.8-.2c-1.5,0-2.8,0-2.8.2s-.3.1-.6,0c-.5,0-.6,0-.5.1.1.2,0,.2-.2.1-.4-.1-2.3.4-2.3.7s0,.1-.2,0c-.1,0-.2,0-.2,0s-.1.2-.3.2c-.3,0-3.1,1.3-4.5,2.1-.5.3-1,.5-1.1.5s-.3,0-.3.2,0,.2-.1.2c-.3,0-1.1.3-1.1.5s0,.1-.2,0c-.1,0-.2,0-.2,0s0,.2-.2.2c-.2,0-1.2.5-1.2.7s-.2.2-.4.2-.4,0-.4.2-.2.2-.4.2-.4,0-.6.2c-.3.3-2.2,1.4-3.3,1.9-.5.2-1,.5-1,.6s-.2.2-.4.2-.4,0-.4.2c0,.2-1.2.9-1.5.8,0,0-.1,0-.1.2s0,.2-.2.2c-.2,0-1.6.9-3.3,2-.5.3-.8.5-.8.4s-.1,0-.3.2c-.2.2-.3.3-.2,0,0-.2-.3.1-.8.7-.5.5-.9,1-.9,1.1,0,.3.3.4.6,0,.2-.2.4-.3.4-.2s.6-.3,1.3-.9c.7-.6,1.4-1,1.6-1s.4-.1.4-.3c0-.2.2-.2.4-.2.2,0,.4,0,.4-.2,0-.2.2-.3.3-.2,0,0,.2,0,.2-.1s0-.2.2,0c.1,0,.2,0,.2,0s.3-.3.8-.4c.4-.1,1-.4,1.4-.6.9-.5,3.4-1.7,3.5-1.7,0,0,.4-.1.7-.3.3-.2.5-.3.5-.2s.1,0,.3-.2c.2-.2.3-.3.2-.1,0,.2,0,.2.2.1.2,0,.3-.2.3-.3s0-.2.1,0c0,0,.3,0,.5-.2.2-.2.5-.3.6-.4.1,0,1.7-.8,3.6-1.7,1.8-.9,3.4-1.6,3.4-1.5,0,0,.2,0,.2-.1s.1-.2.3-.1c.2,0,.4,0,.6-.2s.4-.2.4-.2c0,0,.1,0,.1-.1s0-.2.2-.2c0,0,.5,0,.8-.2.4-.2.7-.3.8-.4,0,0,.2,0,.4-.1,1.5-.6,4.7-1.2,4.9-.9.2.2,3.3.8,4.2.9.3,0,.6,0,.7.2,0,0,.4.2.8.2.4,0,.9.2,1.1.2.2,0,.6.2.9.2.3,0,.6,0,.6.2,0,0,.2.1.4,0,.2,0,.4,0,.4,0,0,.2.5.3,2.9.7.2,0,.6.1.9.2,1.2.3,1.6.3,2.4.4,1.6.2,2.3.3,3.7.8.8.2,1.5.4,1.6.4.3,0,.1.6-.1.7-.2,0-.3.2-.3.4s0,.3-.2.3c-.3.1-3.8,4.8-5.5,7.2-.9,1.3-1.7,2.5-1.8,2.5-.1,0-.2.2-.1.2,0,0-.2.7-.6,1.4l-.7,1.4h-.8c-.4-.2-2.1-.3-3.6-.3-1.5,0-3.2-.2-3.7-.3l-.9-.2v-2.1c0-3.2-.5-3.9-1.5-2.4-.2.3-.4.6-.4.6,0,0-.1.3-.1.5-.2,1.9-.3,2.5-.6,2.9-.4.6-1.8,1.3-2.7,1.5-1.3.2-1.4.3-1.6.3-.2,0-.8.5-1.7,1.4-1.1,1-2,3.6-2.5,6.8-.2,1.7-4.4,6.3-9.3,10.3-.3.2-.6.5-.7.6-.1.1-.3.2-.4.2s-.2.1-.3.3c0,.2-.3.3-.4.3s-.3,0-.3.2,0,.2-.2.1c0,0-.3,0-.4.2-1.4,1.7-3.2,1.3-3.5-.8-.2-1-.4-1.5-.8-1.5-.7,0-1.2,2-.7,3,.1.2.2.5.1.6,0,0,0,.2,0,.2s.4.5.7,1.1c.3.6,1.1,1.7,1.7,2.6.6.9,1.1,1.6,1,1.6s0,0,.2.2c.5.3,1.5,2.2,1.4,2.5,0,.1.2.6.6,1,.6.6.7.9.6,1.3,0,.3.1,1.3.5,2.4l.6,1.9h-1.4c-.8,0-1.6-.1-1.9-.2-.3-.1-.5,0-.6.1-.1.2-.2.2-.2,0,0-.2-.6-.2-2.1-.2-2.5,0-3,.5-1.4,1.4.6.3,1.3.5,3.1.7.6,0,3,.3,4.8.4,2.3.2,2.8.2,3.1.4.2,0,.5.1.6,0,.1,0,.4,0,.6,0,.3.1,2,.4,2.5.4.1,0,.3,0,.3.2,0,0,.4.2.8.2.3,0,.6.1.6.2,0,0,0,.1.2,0,.1,0,.2,0,.2.1s0,.2.2.1c.1,0,.1,0,0,.2,0,.2-.2.3-.3.2,0,0-.2,0-.2.1s0,.2-.1.1c0,0-.3,0-.5.3-.2.2-.4.4-.4.2,0-.1-.2,0-.4.3-.2.3-.6.9-1,1.5s-.6,1.1-.5,1.2c0,.2.2.2.3,0,0-.1.2-.2.3-.2,0,0,.3,0,.6-.1.2,0,.5-.1.6-.1,0,0,.3,0,.5,0,.2,0,3.8-.3,3.8-.2s-.5,1.1-1.2,2.3c-.7,1.3-1.2,2.5-1.2,2.7s-.1.4-.2.5c-.1,0,.3.1.9.1h1.1s.3-.8.3-.8c.6-1.9,4.5-8.4,5-8.4s.2,0,.1-.1c0,0,.5-1.2,1.3-2.5,1.8-2.9,3.4-6,4.4-8.3.4-1,.8-1.8.9-1.9,0,0,.1-.2.2-.4.1-.7,1-2.9,1.1-3,0,0,.1-.1,0-.2,0,0,.1-1,.4-2,.3-1,.5-2.2.6-2.6,0-.4,0-.7.1-.7s0-.4,0-1c0-.6.1-1.5.2-2.1,0-.6.2-1.3.2-1.6,0-.3,0-.6.1-.6s.1-.2.1-.6c0-1.1.6-3.6.9-3.6s.1-.1,0-.3c0-.2,0-.3.1-.3s.2,0,.1-.2c-.1-.2.8-3.2,1.1-3.4,0,0,.1-.2.2-.4.1-.7,1.3-3.2,1.5-3.2s.1,0,0-.1c-.3-.3,4.1-8,5.7-10,1.9-2.3,2-1.8.4,2.6-1.4,4-1.7,4.5-1.2,2.1.3-1.2,0-1.7-.5-1-1,1.6-1.8,5.6-1.2,6.3.4.5,3.4,2.1,3.7,1.9,0,0,.2,0,.2.1s.2.2.5.2.5,0,.5.2.1.2.3.2.6.2,1,.4c.4.2.8.4.9.3.1,0,.2,0,.2.1s0,.2.2,0c.1,0,.2,0,.2.1s0,.2.2,0c.1,0,.2,0,.2,0s.2.2.4.2.6.1.8.3c.2.2.4.3.4.2s.3,0,.6.2c1,.5,2.9.2,3.5-.6,0-.1.2-.2.4-.2s.2,0,.2-.2c0,0,.2-.5.6-.8.3-.4,1.3-1.8,2.2-3.2.9-1.4,1.8-2.5,1.8-2.5s.2,0,.2-.2c0-.2,1.3-1.9,2.1-2.7l.4-.4v.5c.2.7.2.7.2,2.9,0,5.4-.9,10.1-2.4,11.5-.3.3-.4.6-.3.9.1.4.1.7,0,1.7,0,.5-.5,2.8-.6,2.9,0,0,0,.4-.1.8,0,.4-.2.7-.3.8-.1,0-.2.1,0,.2.1.2-.7,2.7-1.3,3.8-.3.5-.5,1.1-.5,1.3,0,.2-.8,1.9-1.7,3.8-.9,1.9-1.9,3.9-2.1,4.6-.3.7-.6,1.2-.6,1.3,0,0-.1.2-.1.3,0,.5-.8,2.5-.9,2.5s-.1,0,0,.2c0,.1-.4,1.8-.8,2.8,0,.2-.1.5,0,.6,0,.2,0,.4-.2.4s-.2,0-.1.2c0,0,0,1-.3,2.1-.7,3.4-.8,4.6-.8,8.7,0,3.2.1,5.2.4,6.5.3,1.7,0,9.9-.4,10.1-.1,0-.1.2,0,.3.4.6-1.1,4.4-2.3,5.9-.8,1.1-.9,1.6-.1,1.8.9.3,2.3-1.9,3.7-5.8.4-1.2.9-2.2,1-2.2.3-.1,1.2,1.4,1,1.7,0,.1,0,.2,0,.2.4,0,1.1,3.5,1.4,7.3.2,2.7.1,6.8-.2,8.2-.1.4,0,.6.1.5.3-.1.7-1.3.9-2.8,0-.6.2-1.3.2-1.6.5-3.2.5-6.9.2-8.6-.2-.9-.3-1.6-.3-1.7,0-.3-1.5-4.9-1.9-5.7-.3-.6-.4-1.2-.5-2.6,0-1.7-.2-3.4-.3-3.6,0,0-.2-.9-.3-1.7,0-.4,0-.8-.1-.8-.2,0-.4-10.9-.2-11,0,0,0-.3,0-.6,0-.4,0-.5.2-.5s.3.1.2.3c0,.2,0,.3,0,.3s.2.3.2.7c0,1.9,1.4,5.8,2.5,7.4.4.5.7,1.1.7,1.2s0,.2.2,0c.1,0,.3,0,.3.3,0,.2.2.4.3.4.1,0,.5.3.9.7s.8.7.9.7.3,0,.3.1c0,.4,2.8,1.5,4.2,1.6.5,0,1.1.2,1.4.3.3.1.6.2.7.2s.2,0,.3.2c0,.2.3.3.5.3s.4,0,.4.2,0,.2.1.2c.1,0,.5,0,1.4.4.6.2,3.6,1,4.2,1.1,3.2.5,4.8,0,5.2-1.3,0-.2.2-.8.4-1.4.2-.6.4-1.3.5-1.6,0-.3.1-.5.1-.5s0-.3,0-.7c0-.4.1-1.2.2-1.8.2-1.7.3-2.8.4-3.9,0-.6,0-1.1,0-1.2,0-.1.4-.3.8-.4.4-.1,1.4-.4,2.2-.7.9-.3,1.9-.5,2.9-.5h1.5s0-.9,0-.9c0-1.5-.2-2.2-.3-2.2,0,0-.1-.2-.1-.6,0-.3,0-.8-.1-1.2,0-.3-.2-.9-.2-1.2s-.2-1-.3-1.5c-.1-.5-.2-1.1-.3-1.3s-.1-.5-.2-.7c-2.6-7.7-2.7-8.1-.8-8.3,0,0,.4-.1.8-.3.4-.1,1-.3,1.4-.3.9-.1,1.4-.3,1.4-.5s.1-.1.3,0c.2,0,.3,0,.3-.1s0-.2.2-.1c.1,0,.4,0,.6-.2.4-.4.8-.4,1.6-.2.8.2,1.5-.6,1.4-1.6,0-.4,0-.9,0-1.1,0-.2,0-.4-.2-.4s-.2-.1-.2-.2-.3-.9-.6-1.8c-.4-.9-.6-1.6-.5-1.7.1-.1,10.9-.2,11.1,0,.1.1.1,3.5,0,10.9-.4,17.2-.1,21,1.1,18.9.2-.4.5-.5.9-.6,1.5-.1,8.3-.1,9.2,0,.7.1,1.1,0,1.1,0s.1-.2.4,0c.2.1,1.9.2,3.8.2,1.9,0,3.6,0,3.8.1.3.1.5,0,.9-.6.3-.4.8-1,1.1-1.3.3-.3.6-.7.6-.8s1-.2,2.8,0c1.6,0,5.5.1,8.7.2,5.1,0,6.9,0,8.7-.3.3,0,.9-.1,1.3-.2.4,0,.9-.2,1-.2,0,0,.6-.2,1.1-.2.5,0,1-.2,1-.2s.3-.1.5-.2c.4,0,2.9-.9,3.1-1.1,0,0,.3-.1.5-.2.2,0,.4-.1.5-.2,0,0,.2-.2.4-.2.3,0,2.5-1.1,3.6-1.8,1.3-.8,1.7-.9,2-1,.2,0,.3-.1.4-.3,0-.1.2-.2.3,0,.1,0,.2,0,.3-.2s.2-.3.4-.3.3,0,.3-.2,0-.2.2,0c.1,0,.2,0,.2,0s.4-.4.8-.7c.4-.3.8-.6.8-.6s0-.2.2-.2.5-.3.9-.6c.4-.3.7-.6.9-.6.1,0,.3-.1.4-.3,0-.2.2-.3.2-.2.2.2,4.4-4,6.2-6.1,4.9-5.7,8.6-13.7,9.6-20.5,0-.2.1-.5.2-.7,0-.2.1-.4.1-.6,0-.2,0-.9.1-1.6.3-2.8.2-7.6-.2-9.9,0-.5-.4-2.2-.8-4.2,0-.3-.1-.7-.2-.9,0-.2-.1-.4-.2-.6-.3-.7-.7-2.3-.6-2.4,0,0,0-.2,0-.2,0,0-.5-1.1-1-2.3-1.1-2.7-2.7-5.8-4.3-8.2-.6-1-1.2-1.8-1.2-1.8,0-.2-4-4.7-5.3-5.9-.6-.6-1.4-1.3-1.7-1.6-.3-.3-.6-.5-.7-.4,0,0-.2,0-.4-.3-.1-.2-.4-.4-.5-.4s-.3-.1-.4-.2c0-.1-.3-.4-.6-.5-.2-.1-.4-.3-.3-.4,0-.1,0-.2-.2-.2-.4,0-.2-.6.4-1.3,1-1,1.7-2.9,1.9-4.9.2-2,0-7-.3-8.4-.1-.4-.2-1.2-.3-1.7,0-.5-.1-1.2-.2-1.5-.5-2.3-.2-3.6,1.6-5.9.2-.2.9.5.9.8s.3.4.6.6c.3.3.8,1,1,1.6.5,1.4,1.3,3,2.4,4.9.5.8.8,1.6.8,1.7s0,.1,0,0c0,0,.8.6,1.7,1.4,2.1,2,3,2.8,3.1,2.7,0,0,.2,0,.3.3.1.2.3.4.4.3,0,0,.2,0,.3.2,0,.2.2.3.3.2.1,0,.2,0,.2,0s.2.3.4.4c.2.1,1.1.7,1.9,1.2.8.6,1.6,1.1,1.7,1.1s.2,0,.2.2.1.2.3.2.3,0,.3.2.1.2.2.2.4.2.5.4c.2.2.2.2.2,0,0-.2,0-.1.2,0,.2.2.4.4.5.4,0,0,.5.2.8.4,1.1.7,3,1.7,3.8,2.1.4.2.8.4,1,.6.3.3.6.4.9.3,0,0,.1,0,.1.2s0,.2.1.1c0,0,.3,0,.4.2.2.2.4.3.6.2.2,0,.2,0,.2,0s.2.2.6.3c.4,0,1.1.3,1.5.4,1,.4,3.7,1.1,5.2,1.4.3,0,.6.1.7.2.7.2,3.3.7,3.8.8.3,0,.6.1.6.1,0,0,1.3.2,2.5.3.6,0,1.2.1,1.3.2.3.2,5.1.1,5.1,0s.1-.1.3,0c.2,0,.4,0,.6-.1s.3-.2.4,0c0,0,.1,0,.1-.3,0-.6-.7-.8-3.6-1.2-.5,0-1.5-.2-2.2-.3-.7-.1-1.3-.2-1.4,0,0,0-.2,0-.2-.1,0-.1-.5-.2-1-.3-.5,0-.9-.1-.9-.2,0,0-.2-.1-.4,0-.2,0-.4,0-.4,0s-.2-.2-.3-.2c-.2,0-.5,0-.7-.1-.2,0-.5,0-.7,0-.2,0-.3,0-.2,0,0-.1,0-.2-.3-.2-.7,0-.6,0-2.4-.5-.9-.2-3.3-1-3.9-1.3-.5-.2-.9-.4-1.1-.4s-.5-.1-.8-.3c-.6-.3-1.7-.8-1.8-.8,0,0-.3-.1-.5-.2-.2-.1-.5-.2-.6-.2,0,0-.2,0-.3-.2,0-.2-.2-.2-.4-.2-.2,0-.3,0-.4-.2,0-.2-.2-.3-.3-.2,0,0-.8-.3-1.6-.9-1.7-1.1-3.2-1.9-3.2-1.7s-.4-.2-.8-.5-.8-.6-.8-.5-.1,0-.3-.2c-.2-.2-.3-.3-.2,0,.1.2,0,.2-.1,0-.1-.2-.3-.3-.4-.3-.3,0-2.9-1.9-2.9-2.1s0-.1-.2,0c-.1,0-.3,0-.3-.2,0-.2-.2-.3-.4-.3s-.3,0-.3-.2-.1-.2-.2-.2-.4-.2-.7-.5c-.2-.3-.5-.4-.6-.4,0,0-.1,0-.1-.2s0-.3-.2-.2c-.6.4-4.6-5-4.9-6.6-.2-.9,0-1,1.3-.3.7.3,1.3.7,1.5.7.1,0,.4.1.7.3.2.1.7.3,1,.3.3,0,.6.1.7.2.1.2,1.5.4,2.6.4.4,0,.8,0,.8.1s1.3.1,2.9,0c1.6,0,2.9,0,2.9,0s.4,0,.8-.1c.5,0,1-.1,1.1-.2.1,0,.4-.2.6-.2.2,0,.4-.1.5-.3,0-.1.2-.2.5-.2s.4-.1.4-.3,0-.3.2-.2c.4.3.2-.3-.3-.6-.4-.2-.7-.3-1.4-.2-2.2.3-8.9.2-8.9-.1,0,0,0-.1-.2-.1,0,0-.7-.1-1.4-.3-.7-.2-1.3-.4-1.4-.3,0,0-.1,0-.1-.2s-.1-.2-.3-.1c-.2,0-.3,0-.4-.2,0-.1-.4-.3-.7-.4-.3,0-.9-.3-1.3-.6-1.1-.7-2-1.2-2.2-1.2,0,0-.1,0-.1-.1s-.2-.2-.4-.3c-.4-.1-1.1-.6-1.3-.8,0,0-.3-.2-.4-.2-.2,0-.5-.2-.7-.4-.2-.2-.4-.3-.4-.2,0,0,0,0-.2-.1-.1-.2-.3-.3-.4-.3-.1,0-1-.4-1.9-.8-.9-.4-1.6-.8-1.6-.7s-.1,0-.3-.1c-.6-.5-3.6-1.4-5.4-1.5-.4,0-.8-.1-.9-.2-.1,0-1.1-.1-2.2-.1-2.6,0-4.4-.1-4.6-.3-.1,0-.2,0-.2,0s0,.2-.3,0c-.2-.1-.4-.2-.6-.1-.2,0-.4,0-.5-.1-.1-.1-.7-.2-1.4-.2-.7,0-1.2,0-1.1-.2,0,0-.3-.1-.7,0-.5,0-.8,0-.8,0s-.5-.2-1.1-.2c-1.4,0-2.2,0-5-.7-1.2-.3-2.4-.5-2.7-.6-.3,0-.8-.1-1-.2-.2,0-.9-.2-1.6-.3-.7-.1-2.2-.4-3.4-.6-1.2-.2-2.3-.4-2.5-.5-.2,0-.6-.1-.9-.3-.3-.1-.7-.2-.9-.1-.1,0-.3,0-.3-.1s-.1-.2-.3,0c-.2,0-.3,0-.2,0,0,0-.4-.3-1-.5-2.7-.9-3.6-1.2-4.2-1.6-.7-.5-1.6-.8-1.8-.8,0,0-.4-.2-.6-.6-.3-.3-.6-.6-.7-.6s-.3-.2-.4-.4-.3-.4-.4-.3c0,0-.3,0-.4-.2-.1-.2-.2-.3-.2-.2,0,.2-1.8-1.1-1.8-1.3s0-.2-.2-.2c-.3,0-2.1-1.5-2-1.7,0,0,.8,0,1.7.2,1.5.3,2.8.4,4.5.6.4,0,.7,0,.7.1s.3,0,.7,0,.8,0,.9.1c.4.3,5.8.1,6.5-.2.4-.2.7-.3.7-.2.3.5,2.3-3.2,2.3-4.3s1.3-4.1,2.3-6.2l1.1-2.3-.5-.5c-.3-.3-.5-.6-.5-.7s0-.1-.2,0c-.1,0-.2,0-.2,0s-.1-.2-.2-.2-.3-.1-.5-.3c-.1-.2-.4-.3-.6-.4s-.7-.2-1.2-.5c-3.9-1.9-8.4-3-8.4-2.1s-.1.2-.3.2c-.4,0-.4.3.2.8.3.3.5.4.5.3s0,0,.2,0,.4.3.7.3c.3,0,.5,0,.5.2,0,.1,1.6.7,1.9.6,0,0,.1,0,.1.2s0,.2.2.2c.3,0,1.8.5,3.6,1.5,1,.5,2,1,2.1,1,.3,0,.2.3-1.2,3.4-.6,1.3-1.4,3.2-1.7,4.2-.4,1.3-.7,2-1,2.2-.8.4-10.6.3-12.9-.2-.6-.1-1.6-.2-2.3-.2-5,0-4-14.4,1-14.5.8,0,1.5-.2,2-.4,1.6-.8,7.8-1,11.8-.4.4,0,1.1.2,1.5.2,1.3.2,1.4.2,4.5.9,1.1.2,2.4.5,2.8.6.4,0,1.1.3,1.4.4.3.1.6.2.7.1,0,0,.2,0,.4.1.1.1.4.2.6.1.2,0,.3,0,.3,0s.1.2.3.1c.2,0,.3,0,.4.1,0,.1.4.2.7.2.4,0,.6,0,.6.2,0,0,.1.1.3,0,.2,0,.3,0,.3,0s.1.2.3,0c.2,0,.4,0,.6,0,.1,0,.3.2.4.2.4,0,4.5,1.6,5.4,2,1.6.7,2.1.9,2.1.7,0,0,0,0,.2.1,0,.1.4.3.7.3.3,0,.6,0,.6.1,0,0,.1,0,.2,0,0,0,.3.1.5.2.2,0,.4,0,.5,0,.1,0,.2,0,.2.1s.2.2.4.1c.2,0,.4,0,.4,0s.2.2.3.2c.2,0,.4,0,.5,0,0,0,.4,0,.8.1.4,0,1.3.2,2,.3.7.1,1.6.3,2,.3.4,0,1.1.1,1.6.2,1.5.2,2.2.3,4.1.4,1,0,1.9.2,2.1.2,1.5.5,13.2.2,15.3-.5.4-.1.8-.2,2.3-.4,3.3-.4,5.7-.6,6.8-.5.5,0,1,0,1.1-.1,0,0,.3-.1.5,0,.7.2,1-.7.3-.9-.5-.2-5.8-.6-6.2-.5-.5.1-1.8-.3-1.8-.6s2.4-2.7,2.6-2.5c0,0,.2,0,.2-.2s.5-.7,1.1-1.1c.6-.5,1.6-1.4,2.3-2,.7-.6,1.2-1,1.2-.9,0,0,0,0,.2-.3.1-.3.3-.4.4-.3.1,0,.3-.1.5-.4.2-.3.5-.5.8-.6.8-.2,2.4-4.8,1.7-5.2-.3-.2-1.2.5-1.6,1.2-.4.8-1,1.4-1.2,1.3,0,0-.2,0-.3,0,0,.1-.3.1-.4,0-.2,0-.3,0-.3,0s-.5.2-1.2.2-1.1,0-1.1-.2c0,0-.2-.2-.5-.1-1,0-2.8-.3-3.2-.6-.1,0-.6-.3-1-.4-2.5-.8-5.3-3-6.7-5.3-.7-1.2-1.9-2.6-2.3-2.6-.1,0-.3,0-.5-.2-.2,0-.5,0-.9.5-.6.8-.6.8-.1,1.6.3.5.4.6.2,1-.4.8-1,1.5-1.2,1.4,0,0-.3.1-.5.4-.2.3-.4.5-.5.4,0,0-.2,0-.3.2-.5.8-5.8,1.5-12,1.5-4.5,0-5.7,0-8.3-.5-1.5-.3-3-.8-3.2-1.1-.1-.2-.2-.2-.2-.2s-.2,0-.4-.3c-.9-.9-1.9.3-1.7,1.8,0,.6,0,1-.1,1.2-.1.2-.4.5-.5.7s-.3.3-.3.3c0,0-.3.1-.5.4-.2.2-.4.4-.5.3-.1,0-.2,0-.3.2,0,.2-.2.3-.3.2,0,0-.2,0-.2,0s-.2.3-.4.3c-.2,0-.7.3-1.1.6-.4.3-.7.4-.7.4s-.2,0-.3.2c-.5.5-2.8,1.6-3.4,1.6-.3,0-.5,0-.5.1,0,.2-1.8.1-2,0-.1-.1-.7-.2-1.2-.1-.5,0-1,0-1,0,0,0-.3-.1-.5,0-.2,0-.7,0-1,0-.3,0-1.1-.2-1.6-.3-1.3-.2-2.1-.3-2.9-.4-.8-.1-1.1-.2-2.9-.4h-1.2c0-.1,0-1.1,0-1.1,0-.5,0-1.1,0-1.3,0-.5.2-3.6.3-6.6,0-2,.3-2.9.7-2.6,0,0,.2,0,.2-.1s0-.2.1-.2c.3,0,1.1-.3,1.1-.4s0-.2.2-.1c0,0,.4-.2.7-.5.3-.3.8-.6,1.1-.6.5-.1,2.5-1.5,3.4-2.4.2-.2.4-.4.4-.3s.2,0,.4-.3c.2-.3.3-.3.3-.2,0,.2.2,0,.7-.6.5-.5,1-.8,1.1-.8s.3,0,.3-.2.2-.2.3-.3c.2,0,1-.5,1.7-1,.8-.5,1.4-.9,1.5-.8,0,0,.2,0,.3-.2,0-.2.4-.3.8-.4.4,0,.8-.3.9-.4.1-.2.4-.3.6-.3s.4,0,.4-.2.2-.2.4-.2.4,0,.5-.2.2-.2.3,0c.1,0,.2,0,.2-.1s0-.2.2,0c.1,0,.3,0,.5-.1.2-.1.3-.2.3-.1s.4,0,.9-.3c.5-.2.9-.4.9-.3s.5,0,1.1-.2c1.2-.3,1.6-.4,4.1-.7,2.1-.3,3.8-.4,4.4-.4.2,0,.5,0,.5-.2,0,0,.3-.1.6,0,.3,0,.5,0,.5,0,0-.2.6-.2,2.4-.3.3,0,.6,0,.6-.2s.4-.1.9,0c.5,0,1.1,0,1.2,0,.2,0,.8-.1,1.5-.1.6,0,1.2,0,1.2-.2,0,0,.3-.1.6,0,.3,0,.5,0,.5,0s.1-.2.2-.2c.1,0,.5,0,.9-.2.3,0,.8-.2,1-.2s.4,0,.4,0,.6,0,1.3-.1c.7,0,1.6-.1,1.9-.2.3,0,1.7-.1,3-.2,1.3,0,2.4-.2,2.5-.2,0,0,1.1-.1,2.3-.2,3-.2,4.7-.3,5.1-.4.3,0,1.1-.1,4.8-.4,6.8-.5,12.8,0,14,1.3,0,0,.6.3,1.2.6.6.3,1.1.5,1.2.6s.2.1.4.2c.2,0,.3.1.4.3,0,.1.1.1.2,0,.1,0,.2,0,.2.1s0,.2.2,0c.1,0,.2,0,.2.1s0,.2.1.1c0,0,.3,0,.5.1.2.1.6.4,1,.5.8.3,2.8,1.7,2.8,2s.3.4.7.6c.4.2.6.5.6.6,0,.1,0,.2.1.1s.2,0,.2.2c0,.1,0,.2.1.2.2,0,3.4,3.1,3.4,3.4s0,.2.2.1c.1,0,.3,0,.3.2,0,.2.8,1,1.6,1.9,2.5,2.6,2.6,2.7,2.6,2.9s0,.3.2.3c.1,0,1.1.9,2.2,2,1.6,1.6,2,1.9,2.1,1.7.3-.5.2-.9-.5-2.1-.4-.6-.6-1.2-.6-1.2,0,0,0,0,0,0-.1,0-.9-.8-2.4-2.8-2.9-3.6-8.6-9.9-9-9.9s-.4-.2-.6-.5c-.2-.3-.4-.5-.5-.5s-.5-.3-1.1-.7c-.5-.4-1.8-1.1-2.9-1.6-1-.5-1.9-1-2-1.1-.1-.2-1.2-.6-1.4-.6,0,0-.1,0-.2-.2,0-.1-.4-.2-.6-.3-.3,0-1.1-.3-1.9-.5-.8-.2-1.8-.5-2.2-.5-3.7-.4-5.9-.5-9.2-.2-1.1,0-2.6.2-3.3.2-.7,0-1.7.1-2.2.2-.9.1-2.9.2-6.4.4-1,0-2.4.1-3,.2-.6,0-1.6.2-2.3.2-.7,0-1.7.1-2.4.2-1.6,0-3.2.3-4,.4-.3,0-.8.1-1,0-.2,0-.4,0-.4.1s-.3.1-.6,0c-.3,0-.8,0-.9,0-.2,0-1,.1-1.7.1-.8,0-1.5,0-1.6.1-.1,0-.4.1-.7,0-.3,0-1.4,0-2.4.3-1,.2-2.2.4-2.5.4-.3,0-1,.2-1.4.3-.4,0-1.3.2-1.9.3-.6,0-1.3.2-1.6.2-.9.2-1.8.3-2.5.4-.4,0-1.5.4-2.5.7-.9.3-1.9.6-2,.6s-.4,0-.4.2,0,.2-.2,0-.2,0-.2,0,0,.2-.2.1c-.2-.2-2.2.8-2.2,1.1s0,.2-.2,0c-.1,0-.3,0-.5.1-.1.1-.6.4-1.1.6-.4.2-.8.4-.9.5-.2.3-2.1,1.4-2.4,1.5-.2,0-.3.1-.4.3,0,.1-.2.2-.4.2s-.3,0-.3.2-.3.3-.6.5c-.4.2-.8.5-.9.6-.1.1-.4.3-.7.5-.2.2-.7.5-.9.6-.3.2-.5.4-.6.4s-.3.2-.5.4c-.2.2-.6.5-.9.7-.3.2-.6.4-.7.5,0,.1-.3.2-.4.2s-.3.1-.4.3c0,.2-.2.3-.2.2s-.3,0-.5.3c-.2.2-.7.5-1,.7-.3.2-.8.5-1.1.6l-.5.3v-3c-.2-1.7-.2-6.5-.2-10.7v-7.7c.1,0-.5-.6-.5-.6-1-.9-4-2.3-4.4-2,0,0-.2,0-.2-.1s-.2-.2-.6-.1c-.3,0-.6,0-.6-.1s-.2-.2-.5-.2c-.2,0-.6,0-.8-.1s-.5-.1-.8,0-.4,0-.4,0-2.2-.2-4.9-.2c-2.7,0-4.9,0-4.9.1M222.3,43.1c.6,0,1.4.2,1.8.2.4,0,1,.1,1.3.2.8,0,.9.1.4.3-.8.3-14.4,0-14.5-.4,0-.1,0-.2,0-.2,0,0,1.2,0,2.6-.1,1.4,0,2.5-.2,2.6-.2,0,0,4,0,5.8.2M210.9,47c-.6,1.1-1.4,1.1-1.4,0s0-.6.8-.6c1,0,1-.1.6.6M214.2,46.8c-.5.8-1.2,1.3-1.4.9-.4-.8,0-1.4.9-1.3.6,0,.7.1.5.4M223.7,47.6c-.4.8-1,.4-.9-.6,0-.7,1-.9,1.1-.3,0,.2,0,.6-.2.9M218.8,48.8c0,1.6-1.5,1.7-1.9.2-.1-.5,0-.7.6-1.4l.8-.8.3.7c.2.4.3,1,.3,1.3M208.9,48.6c0,.5-.2,1-.5,1.4-.3.4-.6.7-.6.7-.2.2-.3-.3-.4-1.3,0-1,0-1.2.4-1.6.6-.6,1.1-.3,1.1.7M215.3,48.3c0,.8-.8,1.9-1.3,1.7-.5-.2-.4-1.5.2-1.8.7-.4,1.1-.3,1.1.1M212,48.7c-.2.9-.5,1.5-1.1,1.5-.5,0-.7-.4-.4-1,.7-1.3,1.7-1.6,1.5-.5M228.7,49.4c.3.7,0,1.2-.8,1.5-.4.1-.4.1-.4-1.2s0-1.3.5-1.1c.2,0,.6.4.7.8M210.1,51.1c0,.7-.5,1.8-1,2.1-.5.3-.7-.1-.5-1.2.2-1.5,1.5-2.3,1.5-.9M216.7,51c0,.8-.8,2.4-1.1,2.1-1-1.1-.7-2.9.4-2.8.6,0,.7.1.7.8M219.9,51.2c0,.9-.7,1.7-1.2,1.4-.6-.4,0-2.2.8-2.2s.4.1.4.9M206.7,51.5c0,1.3-.6,1.5-.6.2s0-1,.1-1.1c.3-.3.5.1.4.9M213.1,50.9c0,.8-.5,1.7-1,1.7s-.4,0-.3-.7c.2-1.2,1.3-2.1,1.3-1M223,51.3c.4.9.4,1.2,0,1.5-.4.2-.4.1-.4-1,0-1.4,0-1.5.5-.5M229.6,52.7c.1.9-.3,1-1,.2-.5-.5-.5-.5,0-.9.5-.5,1-.2,1.1.7M214.3,52.7c.6.9.5,1.8,0,2.4l-.5.5-.5-.5c-.6-.6-.6-1,.1-2.3.5-1,.4-1,.9-.2M218,54.3c0,.3-.2.5-.3.5-.1,0-.2.2-.2.4,0,.3-.2.4-.7.2-.5-.2-.4-1.6.1-2.3l.4-.6.4.7c.2.4.3.9.3,1.2M220.7,54.2c0,1.2,0,1.4-.3,1.4s-.3,0-.3,0-.1-.4-.3-.8c-.3-.6-.3-.7,0-1.3.6-.9.7-.8.8.8M211.4,53.6c.1.7-.6,2-1.1,2.1-.4,0-.4-1.1,0-2,.4-.9,1-.9,1.1-.1M208.1,53.9c.2.5,0,1.3-.4,2-.2.4-1,.4-1,0,0-.1,0-.5,0-.8,0-.3,0-.6.1-.6s.1,0,0-.2c0-.1,0-.4.2-.7.4-.6.9-.5,1.1.2M223.8,54.5c0,1.2-.4,1.6-.4.4,0-.6.2-1.5.4-1.5s0,.5,0,1.1M227.7,53.7c0,.2,0,.3.2.3.4,0,.7.8.3,1.2-.6.6-.8.4-.8-.7s0-1.1.2-1.1.1.1.1.3M212.7,56.8c0,2.1-1,2.8-1.6,1-.3-.8,0-1.6.8-2.4.7-.7.8-.4.8,1.4M216.3,56.8c0,.4-1,2.2-1.2,2.2-.3,0-.6-2.1-.5-2.9.2-1,1.7-.4,1.7.7M219.4,55.9c.6.6.2,2.1-.6,2.1s-.7-.2-.8-1.1c0-1.1.7-1.7,1.4-1M229.5,57.4c0,1.7-.4,2.2-.9,1.1-.7-1.4-.6-2.3.4-2.2.5,0,.5.1.5,1.1M209.4,56.8c.1.5-.3,1.8-.7,2.1-.5.3-.7,0-.7-.8,0-1.2,1.1-2.3,1.4-1.3M217.6,58.5c.1.2,0,1.6-.1,2.1-.2.7-1.2.7-1.4,0-.1-.5.2-2,.5-2s.2,0,.2-.1c0-.3,0-.4.4-.3.2,0,.4.2.5.3M214.3,58.8c.5.9-.3,3.2-1.1,3.2s-.7-2.9-.2-3.2c.2-.1.2-.2.1-.2,0,0-.1,0,0-.2.2-.3,1,0,1.2.4M220.8,58.5c.7.7.2,2.3-.7,2.3s-.7-1.5,0-2.2c.4-.5.4-.5.8-.1M210.5,58.6c0,0,0,.3.2.4.5.5,0,3-.7,3-1.1,0-.9-3.5.2-3.5.2,0,.4,0,.3,0M223.9,59.9c0,.8,0,.9-.5.9s-.5,0-.5-.9,0-.9.5-.9.5,0,.5.9M228.4,60c.1.6,0,1.1-.7,1.4-.3.1-.3,0-.3-.9s.7-1.6,1-.5M207.4,60.7c0,1-.3,2-.5,2s-.3-2.1,0-2.8c.2-.5.6,0,.6.8M219.2,62.4c0,.5-.2,1-.3,1.1-.1,0-.2.2,0,.2,0,0,0,.1,0,.3-.5.6-1.2.1-1.2-.8s.3-1.4.9-1.7c.7-.3.9,0,.8.9M215.7,62.4c0,.4-.1.9-.3,1.1-.2.2-.3.4-.3.4,0,0,0,0,0,0,0,0-.2,0-.4.2-.6.5-.9-1.3-.3-2,.8-.9,1.3-.8,1.3.2M212.2,61.9c.4,1.1-.5,3.9-1,3.2-.5-.6-.7-1.8-.4-2.4.4-1,1.2-1.4,1.5-.8M229.2,62.2c.4,1.5,0,2.8-.6,2-.2-.3-.3-.6-.3-.7,0,0,0-.2-.1-.2-.3,0-.3-.8.1-1.3.4-.6.7-.5.9.1M208.9,63.3c0,1-.4,1.6-.9,1.4-.7-.3-.2-2.3.5-2.3s.4.1.4.9M217.1,64.4c.3.7.2,1.6-.3,2.5l-.4.8-.4-.8c-.5-1.1-.5-1.2.1-2.2.6-1,.7-1,1-.3M220.8,64.9c0,1.6-1.7,2.7-1.8,1.3,0-.8.8-2.2,1.4-2.1.4,0,.4.2.4.8M223.9,65.6c0,1.4-.3,1.8-.8,1-.7-1-.4-2.4.4-2.3.4,0,.4.2.5,1.3M213.9,65.6c0,.8-.5,1.6-1,1.6s-.8-.5-.7-.9c0-.2.2-.6.2-.9.3-1.2,1.5-1,1.5.3M210.7,65.8c.3.7,0,1.9-.6,1.9-.9,0-1.4-2.1-.6-2.6.4-.2,1,0,1.2.7M207.3,65.6c.4.7,0,2.4-.6,2.4s-.3-2.5,0-2.7c.2-.2.4-.2.6.2M229.3,67.4c.1.8-1.4,1.8-1.7,1.1-.2-.5-.1-.6.3-1.1.6-.6,1.2-.6,1.3,0M215.2,67.5c0,0,0,0,0,0,0,.1,0,.3.2.3.6.2,0,2.3-.7,2.3s-.2.2-.2.4c0,.8-.4-.3-.5-1.4,0-1.3.2-2,.7-1.8.2.1.4.1.5,0M218.6,68.3c0,1.1-.4,1.7-1,1.5-.6-.2-.3-1.9.4-2.4.5-.3.7-.1.6.9M208.8,68.4c.4.9.2,1.9-.5,2.2-1,.5-1.3-.7-.6-2.3.5-1.1.6-1,1.1,0M212.1,68.5c0,.5-.6,1.5-1,1.7-.6.2-.8-1.2-.2-2.1.3-.5,1.2-.1,1.2.5M221.3,68.8c-.2,1.9-.5,1.9-.7.1,0-1,0-1.1.3-1.2.2,0,.4-.1.4-.1,0,0,0,.5,0,1.2M223.8,70.2c0,.2,0,.4,0,.5,0,0-.1.3-.2.6,0,.3-.2.7-.5.9-.4.4-.9.5-.7.2,0-.1,0-.2-.1-.2s-.2-.3-.1-.8c0-.4.1-.8.1-.9,0-.8,1.3-1.1,1.5-.3M216.9,71.3c0,1.1-.3,1.7-.9,1.8-.7.1-.5-2.2.3-2.8.5-.4.6-.2.6,1M220.6,70.8c.2.3,0,.6-.5,1.4-.9,1.2-1.1,1-1.1-.7s1-2,1.7-.7M213.4,70.4c.3.5.2,2.1-.1,2.5-.3.3-.4.3-.5.2,0-.1-.2-.2-.3-.2-.3,0-.3-1.5,0-2.1.2-.5.9-.7,1.1-.4M210.3,71.6c0,.5,0,.8-.2.8s-.2,0-.1.1c.3.3-.3.9-.7.8-.8-.1-.6-2,.3-2.4.7-.3.7-.2.7.6M207,72.7c0,.5,0,1-.2,1.1-.1,0-.2-.4-.3-1.2,0-.9,0-1.2.2-1.1.1.1.2.7.3,1.2M228.7,72.5c0,.5-.9,1.7-1.3,1.7s-.2-.6,0-1.9c.2-.9,1.3-.6,1.3.2M221.7,72.9c.4.4.3,1.2-.2,1.8-.4.6-1,.7-1,.3-.2-1.5.6-2.7,1.2-2.1M224.3,73.8c0,1,0,1.2-.4,1-.6-.3-.6-.9-.2-1.6.6-.8.6-.8.6.6M285.3,73.1c.3.5.2.9-.3.9s-.6.2-1.1.5c-1,.6-1,.6,0-.8.8-1.2,1.1-1.3,1.5-.6M218.7,74.2c0,.9-.8,1.8-1.4,1.5-.6-.3-.5-1.1.1-2.1.6-.9,1.3-.6,1.3.6M211.9,73.7c.4,1.2,0,2.7-.9,2.7s-.7-.3-.7-1.5,1.2-2.4,1.6-1.2M215,73.5c.4,1-.2,3-.7,2.5-.3-.3-.3-2-.1-2.5.2-.4.7-.5.8,0M208.5,75c0,.9-.4,1.8-.8,1.5s-.2-1.8,0-2.2c.4-.4.6-.1.7.7M229.2,76.3c-.2.6-.2.6-.4.2-.4-.7-.4-1.4,0-1.9l.3-.5.2.8c0,.4,0,1,0,1.4M287.1,75.2c0,.2-1.3,1-1.6,1s-.4.2-.6.5c-.2.2-.4.3-.3.2.2-.4-.5.1-.8.6,0,.1-.2.2-.4.1-.1,0-.2,0-.2.1s0,.2-.2,0c-.1,0-.2,0-.2,0s-.1.2-.3.2-.4.1-.6.3c-.3.3-1.5,1-3.4,1.9-.6.3-1.3.7-1.4.8-.2.1-.3.2-.3.1s-.1,0-.3.2c-.2.2-.4.3-.6.2-.1,0-.4,0-.5.1-.1.1-.5.3-.7.3-.3,0-.5.1-.6.2s-.2.2-.4.2c-.4,0-1.4.2-1.9.4-.5.1.3-.5,1.1-1,.3-.1.6-.4.8-.5.1-.1.3-.2.4-.2,0,0,.2,0,.3-.2,0-.2.2-.3.3-.2,0,0,.2,0,.3-.2,0-.2.2-.3.3-.2.1,0,.2,0,.2,0s0-.2.2,0c.1,0,.2,0,.2,0,0,0,.2-.3.4-.4,4-2,6-3,6.2-3,0,0,.2,0,.2-.1s.2-.2.6-.1c.4,0,.7,0,.9-.2.2-.2.4-.2.4-.2,0,0,.1,0,.1-.1s0-.2.1-.2c0,0,.6-.1,1-.4,1-.5,1.2-.6,1.2-.3M223,75.3c.3.1.3.3,0,1.8,0,.3-.3.4-.6.4-.7,0-.8-.6-.4-1.6.3-.7.4-.8,1-.6M219.8,75.9c.5.2.4,1.1-.3,2-.5.6-.7.7-.8.5-.3-.5-.2-1.7.2-2.2.4-.4.4-.4.9-.3M206.9,76.8c.2,1,.3,1.8,0,1.9-.3.2-.4-.2-.5-1.5-.1-1.4.2-1.7.5-.5M257.7,76.3c0,0,.3.1.6,0,.3,0,.6,0,.6.1s.2.2.5.1c.3,0,.5,0,.5,0s.2.1.5,0c.3,0,.5,0,.6.1,0,.1,0,.2,0,0-.1,0-.3,0-.3,0s-.2.2-.3,0c-.1,0-.2,0-.3.2,0,.2-.2.3-.3.2s-.3,0-.4.2c-.1.2-.4.3-.5.3s-.6.2-1,.5c-.4.3-1.1.6-1.4.8-.4.2-1,.5-1.3.7-1.5.8-2,1.1-2.1,1.1,0,0-.2,0-.2.2s0,.2-.2,0c-.1,0-.2,0-.2,0s0,.2-.2,0-.2,0-.2,0,0,.2-.2.1c0,0-.4,0-.6.3-.2.2-.4.3-.4.2,0,0,0,0-.2.2-.1.2-.3.4-.5.4s-.3,0-.3.2c0,.2-.3.2-1.2-.2-.9-.3-.9-.5-.2-.7.3,0,.8-.3,1.1-.5.3-.2.7-.4.8-.4.2,0,.4-.2.6-.4.2-.3.3-.3.1,0,0,.2,0,.2.2,0,.2-.2.4-.3.5-.3s.2,0,.2-.2,0-.2.2,0,.2,0,.2,0,.3-.3.7-.4c.4-.2.7-.4.7-.4s0-.1.2,0c0,0,.8-.6,1.6-1.5,1.3-1.4,2.4-2,2.4-1.4M280.5,76.3c-.2.2-.5.2-.6.2,0,0-.2,0-.3.2,0,.2-.2.3-.3.2,0,0-.3,0-.5.2-.2.2-.3.2-.4.2,0,0-.1,0-.1.1s0,.2-.2.1c-.1,0-.2,0-.2.1s0,.2-.1.1c0,0-.6.2-1.2.6-.6.4-1.2.7-1.3.7s-.8.4-1.7.9c-.8.5-1.7.9-1.8.9s-.3,0-.3.2,0,.2-.2,0c-.1,0-.2,0-.2,0s0,.2-.2.1c-.1,0-.2,0-.2,0s0,.2-.2.1c0,0-.3,0-.5.3-.2.2-.4.3-.5.3-.1,0-.5,0-.8.2-.6.3-3.1.5-3.3.2-.1-.2,1.8-1.5,2-1.4,0,0,.2,0,.3-.2,0-.2.2-.3.3-.2,0,0,.2,0,.2-.1s0-.2.1-.1c.2.2,1.3-.5,1.3-.7s0-.1.2,0c.1,0,.2,0,.2,0s0-.2.2-.1c0,0,.5,0,.9-.3,1.9-1.3,5.5-2.6,6.6-2.4.2,0,.4,0,.4-.1s.1-.1.3,0c.2,0,.4,0,.5,0,.1,0,.5-.2.7-.2.3,0,.5-.1.6-.2,0,0,.3-.1.4-.1.3,0,.2,0,0,.3M210.1,77.1c.2.5.3,1,.1,1.9,0,.3-1,.1-1.1-.2-.6-1.5.4-3.3,1-1.8M213.7,77.2c0,.3-.2,1-.5,1.6l-.5,1.1-.3-.7c-.6-1.4-.1-3,.8-2.6.3.1.5.3.5.6M216.8,77.6c-.1.4-.3.6-.7.6-.7,0-.8-1.2,0-1.5.6-.3,1,.2.8.9M266.7,77.2c-.1.1-.3.2-.4.2,0,0-.2,0-.2,0s-.2.3-.5.3-.5.2-.5.3-.1.2-.2.2-1.5.6-3,1.4c-1.5.8-2.8,1.3-2.9,1.3,0,0-.1,0-.1.1s0,.2-.2.1c-.1,0-.2,0-.2,0s0,.2-.2.1c-.1,0-.2,0-.2,0s0,.2-.2,0c-.1,0-.2,0-.2,0s0,.2-.2,0c-.1,0-.2,0-.2,0s-.1.2-.2.2c-.1,0-1.1.4-2.2,1-2,1-2.5,1.1-3.2.7-.3-.2-.3-.2.3-.6.3-.2.6-.4.6-.5s.4-.3,1-.6c.5-.2,1.1-.6,1.2-.7.1-.2.3-.3.4-.2,0,0,.2,0,.2-.1s0-.2.2,0,.2,0,.2,0,0-.2.2-.1c.1,0,.2,0,.2,0s0-.2.2-.1c0,0,.2,0,.3-.2,0-.2.2-.3.4-.3s1.4-.5,2.7-1.2c2.2-1.1,3.3-1.5,4.7-1.8.3,0,.5-.1.5-.1.2-.2,2,0,1.8.2M272.5,77c0,.1,0,.2-.2.1-.1,0-.3,0-.5.2-.2.1-1.3.7-2.4,1.3-1.1.6-2.5,1.3-3.2,1.7-.7.4-1.3.6-1.3.5,0,0-.1,0-.1.1s0,.2-.2.1-.2,0-.2,0,0,.2-.2.1c-.1,0-.2,0-.2,0s-.1.2-.3,0c-.2,0-.3,0-.3,0s-.2.1-.6,0c-.3,0-.6-.1-.7,0,0,0-.1,0-.1-.1s-.6.3-1.2.9q-1.7,1.6-2.8,2.2c-.5.3-1.1.6-1.4.6-.6,0-1.6-.3-1.6-.4s.6-.7.8-.7.2,0,.3-.2c0-.2,3.3-1.8,3.6-1.8s.4-.2.7-.4c.3-.2.6-.3.7-.3,0,0,.1,0,.1-.1s.1-.2.3-.1c.2,0,.4,0,.6-.2s.3-.2.4-.2c0,0,.1,0,.1-.1s0-.2.2-.1c.1,0,.2,0,.2,0s.1-.2.3-.2,1-.3,1.8-.7c.9-.4,1.6-.7,1.7-.7s.4-.1.6-.3c.2-.2,1.2-.5,2.1-.8.9-.3,1.8-.6,1.8-.7.2-.2,1.2-.2,1.2,0M289.9,77c.3.2.1.8-.3.8s-.3,0-.3.2-.1.2-.2.2c-.1,0-.7.3-1.1.6-2.5,1.5-4,2.1-4.5,1.7-.6-.6,0-1.3,1.3-1.8.5-.2,1.4-.6,1.9-.9.5-.3,1-.6,1.3-.8.5-.3,1.7-.3,2.1,0M227.8,77.4c.1.5-.4,1.8-.7,1.8s-.2-1.4,0-1.9c.1-.4.6-.3.7.1M221.3,78.7c0,1-.4,1.7-1.1,1.7s-.6-.2,0-1.6c.6-1.2,1-1.3,1.1-.1M224.5,78.1c.6.7-.3,2.4-.9,1.9-.4-.4-.4-1.7,0-2,.5-.3.6-.3.8,0M293.6,78.7l.7.3-1.1.6c-.6.3-1.3.7-1.4.8-.2.1-.5.3-.9.4-.3,0-.6.2-.6.3s0,.1-.2,0c-.1,0-.2,0-.2,0s-.1.2-.3,0c-.2,0-.4,0-.7.3-.2.2-.6.4-.8.4s-.6.2-.6.3c0,.1-.2.2-.2.1,0,0-.5,0-1.1.1-.6.1-1.2.2-1.3.1-.2-.2,1.2-1.4,1.6-1.4s.3,0,.3-.2,0-.2.2,0c.1,0,.3,0,.3-.2,0-.2.2-.3.4-.3s.3,0,.3-.2,0-.2.2,0c.1,0,.2,0,.2,0s.2-.2.4-.3c.2,0,.9-.4,1.6-.8,1.4-.7,1.7-.8,3.3-.2M215.3,80.1c0,1-.4,1.6-1,1.5-.6-.1-.6-1.5-.1-2.1.4-.5,1.1,0,1.1.6M299.1,79.7c.1.1-.5,1.1-.8,1.1s-.4.2-.6.4c-.2.2-.3.3-.3.2s0,0-.3.1c-.2.2-1,.9-1.8,1.6-2.1,1.7-4,3.6-4.5,4.6-.7,1.3-4.9,2.4-5.9,1.5-.2-.2-.3-.2-.4,0,0,.1-.2.2-.4.2s0-.1.2-.3c.2-.2.5-.2.5-.2,0,0,.2,0,.2-.1s0-.2.2-.1c.1,0,.2,0,.2,0s.2-.2.4-.3c.3-.1,1.2-.6,2.3-1.4,1.2-.8,2.3-1.5,2.4-1.4,0,0,.2,0,.2-.2s0-.2.2,0c.1,0,.3,0,.3-.2,0-.2.2-.3.3-.2,0,0,.2,0,.2-.1s0-.2.2-.1c0,0,.3,0,.6-.2.4-.4.8-.6,2-1.2.4-.2,1-.7,1.4-1l.7-.6-.5-.2c-.3-.1-.5-.1-.6,0,0,.1-.1.2-.2.1,0,0-.4.1-.7.4s-.6.4-.7.4c0,0-.2,0-.2.1s0,.2-.1.1c0,0-.5.1-.9.4-.4.3-1.2.9-1.9,1.2-.6.4-1.2.7-1.3.8,0,.1-.3.2-.5.2s-.4,0-.4.2,0,.2-.2,0c-.1,0-.3,0-.3.2,0,.2-.2.3-.3.2s-.2,0-.3.2c0,.2-.2.3-.3.2-.1,0-.2,0-.2,0s-.1.2-.3.2-.3,0-.3.2-.3.3-.6.5c-.4.2-1.3.7-2.2,1.1-1.4.7-2.4,1.1-3.3,1.1-1.1,0-1.8,0-1.8-.3s0-.2.1-.1c0,0,.4,0,.6-.4.3-.3.6-.5.8-.5s.3-.1.3-.2,0-.2.1-.1c.1.1,1.2-.5,1.8-1,.1-.1.3-.2.4-.2s.5-.2.9-.5c.4-.3.8-.4.8-.4,0,0,.1,0,.1-.1s.1-.2.4-.1c.3,0,.5,0,.6-.3.1-.2.4-.4.6-.4s.4,0,.4-.2,0-.2.2-.1c0,0,.4-.1.6-.4.3-.3.6-.5.7-.5.1,0,.3-.1.4-.3,0-.2.2-.3.4-.3s.4-.1.5-.3c.4-.4,1.2-.8,1.4-.8,0,0,.1,0,.1-.1s.4-.3,1-.5c.5-.2,1-.4,1.1-.5,0-.1.2-.1.4,0,.1,0,.2,0,.2,0s0-.2.2-.1c.2.1,1.4-.3,1.4-.5s0-.1.2,0c0,0,.6,0,1-.2.8-.3,2.5-.3,2.7,0M208.9,80.2c.4.8.2,1.7-.3,1.4-.2-.1-.4-.1-.4,0,0,.6-.4-.6-.4-1.2,0-1,.6-1.1,1.1-.1M211.8,79.9c.2.6.1,1.8-.2,2-.5.2-.7.1-.6,0,0-.1,0-.2,0-.2-.2,0-.3-1.2,0-1.7,0-.2.3-.3.5-.3s.4.1.5.3M216.5,81.9c.4.4.3,1.7-.1,2.2-.5.6-.6.5-.7-.9,0-.8,0-1.2.2-1.3.4-.2.4-.2.7,0M207.5,82.6c.4.7.3,1.8-.1,2-.8.4-1.1.3-.9-.6.3-1.6.7-2.2,1.1-1.5M280.7,82.9c-.4.2-.7.5-.7.6,0,0-.2.2-.3.2s-.9.4-1.7.9c-.8.5-1.6.9-1.7.9s-.1,0-.1.2,0,.2-.1,0c0,0-.3,0-.6.3-.3.2-.6.5-.8.7-3,1.7-3.7,2-4.8,2-1.1,0-2-.3-2-.5,0-.5,3.1-2.5,4-2.5s.5,0,.5-.2.2-.2.3,0c.1,0,.2,0,.2,0,0,0,.3-.2.6-.2.4,0,.7-.1.7-.3,0-.1.1-.2.2,0,0,0,.4,0,.8-.2.3-.2.6-.3.7-.2,0,0,.7-.1,1.5-.4.8-.3,1.6-.6,1.8-.6.2,0,.6-.3.9-.5.6-.4,1-.6,1.3-.4,0,0-.1.3-.5.5M210.7,83.3c.4.7.3.8-.5.6-.8-.2-1-1.3-.3-1.2.3,0,.6.3.8.6M213.7,83.4c0,.4,0,.7,0,.7-.5,0-1.3-.5-1.3-.8,0-1,1.3-.8,1.3.1M282.8,84.2c.7-.2.9.5.3,1-.3.3-.6.4-.7.4,0,0-.2,0-.4.3-.2.2-.2.2-.1,0,0-.2-.1,0-.4.2-.3.3-.7.5-.8.5s-.5.2-.9.5c-.4.3-.7.4-.7.3,0,0,0,0-.1,0-.6,1-4.4,2.2-4.6,1.5,0-.2,0-.2.1-.1.1,0,.2,0,.2,0s.3-.2.6-.1c.3,0,.6,0,.6-.1s.1-.1.3,0c.2,0,.3,0,.3-.1s0-.2.2-.1c.3.2.9-.8.7-1.2-.1-.3,1-1.7,1.3-1.6,0,0,.3-.1.5-.4s.3-.3.2,0c0,.2,0,.2.2,0,.2-.2.3-.3.4-.2,0,0,.1,0,.1-.1s0-.2.1-.2c0,0,.2,0,.2,0,0,0,.4,0,.7-.1.3,0,.7-.2.8-.3.1-.1.2-.1.3,0,0,.1.3.2.4.1M263.4,84.7c.1,0,.2,0,.2.1s.1.2.4.1c.3-.1.3,0,0,.2-.2.2-.5.2-.6.2,0,0-.2,0-.2.1s0,.2-.2,0c-.1,0-.2,0-.2,0s0,.2-.2.1c-.1,0-.3,0-.5.2-.2.2-.3.3-.3.2s-.1,0-.2,0c-.3.3-1.6.5-1.6.3,0-1.1,1.6-2.3,2.6-1.9.4.2.7.2.9.2M268.9,85.7c0,0-.1.2-.3.2s-.4.2-.5.4c-.1.2-.4.4-.5.4s-.3,0-.3.2c0,.2-1.2.8-1.9.9-1,.2-2.7.2-2.7,0s-.2-.2-.5-.2c-1.1,0,1-1.2,2.6-1.5.4,0,.7-.2.8-.3,0,0,.2-.1.4,0,.2,0,.3,0,.4,0,.1-.2,2.5-.2,2.5,0M214.2,88.4c-.6,1.6-.6,2.3-.3,3.7.2.7.2,1.5.2,1.7,0,.2,0,.3.1.3s.2.1.2.3c0,1,2.5,5.8,3.6,6.9.4.4,1.2,2.5,1.1,2.9,0,.2,0,.3,0,.3.3,0,.4,3.7.2,5.1,0,.4-.2.7-.4.7-.4,0-1.3,1.1-1.6,1.8-.2.7-.5.6-.5-.3,0-.3-.2-.9-.3-1.1l-.3-.5-.5.8c-.7,1-.7,1.3,0,2.1,1.2,1.4,3,1.2,3-.3s0-.6.4-.6.4,0,.3.6c-.2,1.1.6,1.6,1.2.7.4-.6.6-1.2.3-1.2-.6,0-.8-6.8-.3-8,.1-.4.5-.5.5-.2.1.8.2,2.7.3,8v6.2c0,0-3.9-.1-3.9-.1-2.2,0-4.6-.1-5.5-.1-1.4,0-1.5,0-1.3-.4.6-1-.2-3.4-1.1-3.5-.3,0-.5,0-.5,0,0,0,.2-.3.5-.7,1.2-1.3,1.3-1.8.6-3.3-.6-1.4-1.6-1.3-2.9,0l-.5.5v-11.6c0,0-.1-11.6-.1-11.6h3.8c2.1,0,3.8-.1,3.8,0,0,0-.1.5-.3,1M205.5,91.9c-.1,1-.8,2.4-1.1,2.4-.1,0-.2,0-.2.1,0,.3-3.4,4.2-3.8,4.2s3-6.2,3.9-7c.9-.8,1.3-.7,1.1.3M205.4,98c0,2.5-.2,2.7-1.3,2.7-.3,0-.9,0-1.3,0-1.4,0-1.1-1.1,1.1-3.9,1.3-1.7,1.6-1.5,1.5,1.3M225.3,106.9c0-.1.1,0,.2.2.1.2.3.3.4.2.1,0,.2,0,.2.1s0,.2.2.1c0,0,.3,0,.5.2.5.3.6,10.2.2,10.4-.5.2-1.4.1-1.4-.1s-.1-.2-.3-.1c-.2,0-.3,0-.3,0-.2-.5,0-11.3.2-11,.1.2.2.2.2,0M230,109.6c.1.2.2.7,0,1.2,0,.4-.2,1-.2,1.4-.2,1.7-.7,1.2-.8-.9,0-2.1.3-2.8.9-1.7M233.2,110.5c1.1.4,1.1.6.4,1.4-.3.3-.5.6-.5.7s-.1.2-.2.2c-.1,0-.4,0-.6,0-.4,0-.6-1-.5-2,.2-.8.1-.8,1.4-.4M209.1,112c-.3.3-.9.2-.9-.2,0-.2,0-.5.3-.6.4-.4,1,.4.7.8M236.7,111.9c-.1.2-1.1,1.2-2.2,2.3-1.1,1.1-2,2.1-2,2.2,0,.3.4.2.8-.2.2-.2.5-.4.6-.3,0,0,.2,0,.3-.2s.2-.3.2-.2c0,0,.6-.4,1.2-1,1-1,2.9-2.4,3.1-2.3,0,0,.3,0,.6-.2,1.4-.5.8.4-1.7,2.9-2.5,2.5-3.7,3.9-3.7,4.4s.3,0,.7-.3c.4-.3.7-.6.8-.6,0,0,.8-.7,1.6-1.5.8-.8,1.5-1.5,1.7-1.5.1,0,.5-.3.9-.8,1.4-1.5,2.5-2.2,3.1-2.2s.5.5-1.3,2.4c-1,1-1.7,1.8-1.6,1.7.1,0-.1.2-.5.7-1.7,1.8-3,3.5-3,3.9s.3.5.8,0c.2-.2.5-.4.7-.4s.2-.1.2-.3.2-.4.4-.5c.2-.1.3-.3.3-.4s.7-.9,1.6-1.9c.9-.9,1.6-1.7,1.6-1.8,0-.3,2.9-2.8,3.2-2.8.6,0,.5.3-1.1,2-2.5,2.9-5,6.4-4.7,6.7.1.1,1.4-.9,1.4-1.1s3.4-4.2,4.6-5.5c.9-.9,2.3-1.7,2.3-1.2,0,.4-1.2,2.4-1.5,2.5-.2,0-.2.2-.2.3,0,0-.3.5-.8,1-.5.5-.9.9-.9.9s-.5.8-1.2,1.5c-1.4,1.8-2.3,3.2-2.2,3.6.1.4.5.4.5,0s3.3-4.3,3.5-4.2c0,0,0,0,0,0-.2-.3,1.6-1.9,2.1-1.9,1,0,1,.3.3,1.3-2.6,3.7-2.8,4-2.6,4.2s.4,0,1-.7c1.5-1.7,2.1-2.3,1.9-2-.1.3-.1.3.1,0,.6-.7,1.2-.3,1.1.7,0,.7,0,1,.3,1.4.3.3.4.8.4,1.4s.2,1.4.5,2c1,2.2,1,6.4,0,7.9-.6.9-1,1.1-.7.3.3-.9-.3-1.4-.7-.6-.2.4-.4.6-.5.5-.1,0-.2,0-.2,0s-.1.2-.3.2-.3-.2-.3-.4.1-.7.3-1.1c.7-1.7,0-1.8-.9-.2-.8,1.3-1.1,1.7-1.3,1.5-.2-.2-.1-2.2.2-2.6.2-.3.2-.5.1-.7-.2-.2-.2-.2-.2,0,0,.2,0,.2-.1.2,0,0-.5.3-1,.9-1.1,1.3-1.4,1.4-1.4.6s.6-1.8.8-1.8c0,0,.2,0,.2-.2,0-.9-1.2.2-2.6,2.3l-.9,1.4v-1.1c-.1-1.2.2-2.6.5-2.6s.3-.3.4-.6.3-.6.3-.6c.4,0,.6,0,.6-.5,0-.7-.4-.6-1,0-1,1.2-1.7,2-1.7,2.1s-.2.1-.5.2c-.5,0-.7-1.6-.1-1.9,0,0,.2-.3.2-.5,0-.2.1-.5.2-.6.3-.3.2-.5,0-.5s-1.4,1.1-1.3,1.3c0,.5,0,.7-.2.5-.2-.2-.2-.7-.1-2.2,0-1.2,0-1.3-.6-.4l-.4.7-.4-1.4c-.2-.8-.6-1.8-.9-2.2-.3-.5-1.4-2.5-2.4-4.6l-1.9-3.8.9-.8c.5-.5,1.4-1.2,2-1.7.6-.5,1.2-.9,1.3-1,.2-.2.6-.3,1.4-.4,0,0,0,.1,0,.3M207.7,113.1l.6.4-.6.5-.6.5v-.5c-.4-1.1-.1-1.5.7-.9M253.1,115.5c-.2.4-.5.7-.6.7s-.2,0,0,.1c0,0-.1.5-.5,1.1-1.1,1.8-.7,1.8,1.1,0,.9-.9,1.7-1.7,1.7-1.7s.3-.2.6-.5c1.5-1.5.5.6-1.7,3.5-1.8,2.4-1.9,2.5-2.1,1.3,0-.4-.5-1.5-1-2.5-.9-1.9-1-2.6-.4-3.1.9-.8,1.4-.2.5.7-.6.5-.6.8,0,.9.2,0,.3,0,.3,0-.1-.1,1.2-1.3,2-1.7.8-.4.9.1.3,1.2M209.6,116.5c.4.6.7,1.2.7,1.2-.1.1-2.5.2-2.8,0-.2,0-.4-.1-.6,0-.2,0-.3-.2-.3-.7,0-.8.5-1.1.9-.4.4.6.9.2.8-.6-.2-1.1.4-.8,1.3.6M259.2,115.6c.3,0,.1.5-.9,1.9-.6.8-1.9,2.7-2.8,4.1-2,3.1-2.5,3.6-2.9,3.1-.4-.5-.3-2.2,0-2.9.4-.8,2.3-3.3,2.5-3.3s.1-.1,0-.3c-.1-.3,1.4-1.9,1.8-1.9s.3-.1.5-.3c.2-.2.4-.3.5-.2.1,0,.2,0,.2,0s.2-.2.4-.1c.2,0,.5,0,.6,0M262.4,115.9c.2.4-.5,1.8-1.8,3.7-.7,1.1-1.4,2.2-1.5,2.5-.1.3-.3.5-.4.5s-.6.6-1.1,1.3c-.5.7-1,1.3-1.1,1.3s-.2,0-.1.2c.2.5-2.7,4.5-3,4.2-.8-.8,0-3.3,2.6-7.3,2.1-3.4,3.6-5.3,5-6.4.3-.2,1.3-.2,1.4,0M266.6,115.8c0,.1,0,.2.3.2s.4,0,.5.1c.2.2-.2.9-.5.8-.1,0-.2,0-.2.2s-.2.5-.6.8c-.3.3-.8.9-1.2,1.3-.9,1.2-1.5,1.5-1.4.7.2-1,1.4-4.1,1.5-4,0,0,.3,0,.5,0,.6-.2,1.2-.2,1,0M269.9,116.8c.5.3-1.5,3.4-2.8,4.3-.2.1-.4.3-.4.4,0,.3-1.2,1.5-1.5,1.5-.7,0-1.2-1.8-.5-2.2.2-.1.4-.4.4-.5,0-.4.7-1.1.9-1,0,0,.1,0,.1-.2,0-.6,2.4-2.4,3.4-2.5,0,0,.2,0,.4.2M231.4,121.6c2.1,4.2,3.4,7.1,3.2,7.4,0,.1,0,.2,0,.2s.4.4.6.9c.5.9.9,1.6,1,1.8,0,0,.4.5.9,1l.7.9h-1.1c-1.6-.2-2.6-.3-3-.6-.2-.1-.4-.1-.4,0s-.1,0-.3,0c-.1-.1-.3-.2-.4-.1,0,0-.2,0-.4-.2-.1-.2-.3-.3-.5-.3s-.6-.3-1.1-.8-1.2-.9-1.6-1.1c-.4-.2-.7-.5-.7-.6,0-.4-.9-.7-2-.6h-.9c0,0,0-.9,0-.9,0-1.9,1.1-5.2,2.3-6.9,1-1.5,1.1-1.7.8-2.3-.2-.5-.3-1.4-.2-2,0-.4,1,1.1,2.7,4.5M272.1,118.4c0,.5-.3.9-2.2,3.1-.8,1-1.8,2.2-2.2,2.7-1.2,1.7-2.1,1.9-1.7.4.3-1.3,4.1-6.2,5.1-6.5.6-.2,1-.1,1,.2M218.1,121.7v1.7h-.5c-.5,0-.5,0-.4-.6,0-.4,0-.9-.2-1.3-.3-.7-.6-.9-.7-.4,0,.4-.1,1-.1,1.7,0,1-.6.8-.8-.2-.3-1.2-.6-2-.8-2s-.2.1-.1.2c0,.1,0,.2-.2.2-.1,0-.2,0-.1.1,0,.1,0,.4-.1.6-.2.3-.2.5,0,.6.3.3.3.9,0,1-.2.1-.6-1.1-.7-1.9,0-.2,0-.3-.2-.3,0,0-.2,0-.3-.3-.2-.6-.9-.2-.7.5,0,0,0,.5.1,1v.8c0,0-.5-1.2-.5-1.2-.9-1.7-1.5-1.5-1,.2.3,1,.2,1-1.5-.7l-1.6-1.5h1.1c.9.1,9.2-.1,9.3-.2,0,0,0,.7,0,1.7M226.3,120.6c.1.3-.8,1-1.3,1-.2,0-.7.4-1.1.9-.7.8-.7.8-.7.4,0-1.9-.2-2-.7-.7-.4,1.1-1.1,1.6-1.1.8s0-.5.2-.5.2,0,0-.2c0-.1,0-.4,0-.6.2-.5,0-1-.3-1s-.6.6-.9,1.2c-1.1,2.1-1.7,1.4-1.2-1.2,0,0,.4,0,.9,0,.5,0,1,0,1.1-.2.4-.3,4.9,0,5,.2M260.8,122.3c.9.8.8,1.8-.4,3.2-.5.6-1.8,2.4-2.8,3.9-1.1,1.5-2.1,2.9-2.4,3.2l-.5.5-.5-.5c-.7-.7-.8-1.6-.2-2,.3-.1.6-.5.7-.8.1-.3.6-1.1,1.1-1.8.5-.7,1.6-2.3,2.5-3.7,1.8-2.7,1.7-2.6,2.5-1.9M270.1,124.6c-.2.6-2,2.9-2.3,3.1-.5.3-.6-.1-.4-1.5,0-.2,1.2-1.4,1.2-1.2s.1,0,.3-.2c.1-.2.4-.3.5-.2.1,0,.2,0,.2,0s.1-.2.3-.2.3.1.2.3M262.7,125c.2.5.2,1.1,0,2,0,.1-.2.4-.3.5-.3.3-.3.4,0,.7.3.4.3.4.6-.1.6-1.1,1.4-.9,1.4.3s-3.2,5.3-4.2,6.2c0,0-.2.4-.4.7-.5.9-1.1,1.2-1.8.9-.8-.3-.8-.4.3-1.9.8-1.2,1.1-1.9.8-1.9s-.4.3-1.4,1.5c-1.6,2-2.7,1.3-1.5-.9,1-1.7,2.4-3.8,2.7-3.8s.2,0,0-.1c-.1-.1.7-1.4,2.2-3.2.5-.6.9-1,1-.9,0,0,.1,0,.1-.2,0-.5.3-.4.6.2M213.4,126c-.3.7-.3,1,0,1.6.4.8.9,1.2,1.2,1.1.1,0,.2,0,.2.1s.1.2.3.2.3,0,.3-.2.1-.2.2-.1c.7.2,1.2-1.4.7-2.2-.4-.5-.4-.6.3-.7.7-.1,1,.2,1.6,1.5l.4.9h1.2c.6,0,1.3,0,1.4-.2.1-.1.2-.1.2,0s.3,0,.6,0c1.1-.4.7-.9-.7-.9-1.4,0-2.5-.2-2.5-.5,0-.4,1.8-.7,3.4-.6h1.6v3.4h-5.6c-3.1,0-6,0-6.4,0-1.3,0-1.5-.2-1.4-1.6,0-.7.1-1.4.1-1.6,0-.4.2-.4,1.5-.4s1.4,0,1.3.3M270.6,128c0,1.4,0,1.6-.2,1.5-.2,0-.4,0-.7.3-.4.5-1.1.4-1.3-.1-.3-.8,1.3-3.6,1.9-3.4.1,0,.2.8.3,1.7M265.6,129.8c.2.3-.5,1.9-.8,2.2-.2.1-.3.3-.3.4,0,0,0,.4-.3.7-.5.9-.1,1.1.5.3,1.4-2.1,2.1-2,2,.2,0,.7,0,.8-1.3,2.6-.7,1-.7,1.2-.5,1.4.3.3.5.1,1.5-1.1l.4-.5v.9c-.2,1.4-.6,2.5-1.1,2.5-.9,0-1.2-.2-1.5-.5-.2-.2-.5-.3-.7-.3-.5.2-1.1-.8-.9-1.4.3-1.1.3-1.4,0-1.4s-.3,0-.3.2c0,.4-1.2,1.4-1.6,1.4-.7,0-.4-1.1,1-3.3,1.6-2.7,3.6-4.7,3.9-4.1M271.3,131.2c.2.5-.5,1.4-1.3,1.7-.5.2-.9-.4-.4-.7.2,0,.2-.2,0-.2s0-.3.4-.6c.7-.7,1-.8,1.3-.2M228.7,132.7c.4.6.7,1.1.7,1.2s0,.2.2.2.5.2.8.4c.6.4,1.9.9,2.5,1,.2,0,.8.1,1.4.2s1.2.2,1.5.2c.3,0,1.5.1,2.7.2,6,.3,7.8.4,10,.6,1.3.1,2.5.2,2.5.2,0,0,.2,0,.2.1s.1.2.2.2c.1,0,.5,0,.8.2.3.1.8.3,1.2.3.3,0,.6,0,.6.2,0,.2,1.8.6,2,.5,0,0,.2,0,.3,0,0,.1.3.2.5.2,1.1,0,2.8.5,4.9,1.5.8.4,1.5.7,1.6.7s.3.2.4.3c.1.2.2.3.2.2,0,0,.1,0,.3,0,.6.6,1.1,1,1.4,1,1.1,0,2.2.7,1.5,1.1-1.7.8-2,1.4-1.3,2l.6.5-.3.7c-.2.4-.5.9-.8,1-.2.2-.3.3-.2.3s-.2.5-.7,1.1c-1.6,1.9-3.9,5.4-4.3,6.6-.4,1.1.2.7,1.3-.9,1.2-1.7,3.3-4.5,4.2-5.5.3-.3.5-.6.5-.7,0-.3,3.6-3.9,3.9-3.9.7-.1.5.2-2.3,4.2-1.1,1.5-2.1,2.8-2.2,2.8s-.1,0,0,.1c.1.1-.5,1.3-.7,1.3s-.2.1-.2.3c0,.8.5.3,2.2-2,.8-1.1,1.9-2.4,2.4-2.9.5-.5.9-1,1-1.2.1-.2.3-.3.4-.3,0,0,.3,0,.5-.3.2-.2.3-.4.3-.3,0,.1,0,0,.2,0,.1-.2.2-.2.4.2.2.4.1.6-.6,1.6-3.3,4.6-5.8,8.6-7.3,11.7-1.5,3.1-.9,2.5,2.1-2,5.6-8.4,7.1-10.4,7.7-10,.7.4.5,1-1.1,2.9-.8,1-2.1,2.7-2.7,3.6-.7,1-1.3,1.8-1.4,1.8s-.2,0-.1.2c0,0-.6,1.2-1.4,2.4-2,3.1-3.1,5.2-3.1,5.8,0,.6.2.3,3.8-4.6,1.4-1.9,2.9-3.9,3.4-4.4.5-.5,1.3-1.6,1.9-2.3,1.7-2.2,2.4-2.8,3-2.7.3,0,.5,0,.5,0s.1,0,.3.1c.5.4,0,.9-.8,1-.1,0-.3.2-.3.4,0,.2-.2.4-.4.3s-.2,0-.2,0c0,.2-2.4,3.1-3,3.6-.2.2-.4.4-.4.5,0,.1-.5.8-1.1,1.6-1.7,2.2-4.6,6.7-5.4,8.3-.4.8-.8,1.5-.9,1.6,0,0,0,.3,0,.6.2.5,0,.7,2.7-3.2.5-.8,1.2-1.6,1.5-2,.3-.3.5-.6.5-.7,0-.2,4.1-5.4,5.1-6.4.6-.5.9-.9.7-.8-.3.2.9-1.2,1.9-2.1.6-.6,1.3-.9,1.7-.7.4.2.2.5-1,1.8-.6.7-3,4.1-5.3,7.5s-4.4,6.5-4.7,6.8c-.3.4-.6.7-.6.7,0,.3-1.5,2.3-1.8,2.3s-.9-1.2-1.6-2.7c-1.5-3-3-5.3-4.4-6.9-.5-.6-1-1.3-1.1-1.5,0-.2-.2-.3-.3-.3,0,0-.6-.3-1.2-.9-.6-.5-1-.9-1-.9s-.2-.1-.5-.4c-.3-.3-.7-.5-.8-.5s-.3,0-.3-.2-.3-.3-.8-.6c-.4-.2-.8-.5-.9-.6,0-.1-.1-.1-.2,0,0,.1-.1,0-.3-.2-.2-.2-.3-.3-.2,0s0,.1-.2,0c-.2-.2-.3-.3-.3-.2s-.5,0-1-.4l-1-.5,2.8-2.8c3.5-3.5,4.3-4.6,3.9-4.9-.3-.2-.3-.2-.5,0,0,.2-.2.2-.2.1,0,0-.5.4-1,1.1-1.4,1.7-4,4.4-4.3,4.4s-.4.2-.5.4c-.2.2-.3.3-.4.3,0,0-.1,0-.1,0,0,.2-1.4.9-1.5.8-.2-.2.7-1.8,1.6-2.8,1.2-1.4,2.8-3.1,3-3.1.3,0,1.4-1.3,1.4-1.6,0-.2-.2-.3-.4-.2-.2,0-.5,0-.6,0-.1,0-.2,0-.2.2s-.1.2-.3.2-.3,0-.4.2c0,0-.6.7-1.2,1.4-.6.7-1.5,1.7-2,2.3-.5.6-.9,1.1-1,1.1s-.2.3-.4.6c-.4.9-2.4,1.3-3.4.7,0,0-1-.1-2.1-.1-1,0-3.3,0-5-.1-7.6-.2-12.6-.3-19.6-.3h-7.5s0-3.2,0-3.2v-3.2c0,0,9.8,0,9.8,0,5.4,0,10.2,0,10.8-.1h1c0-.1-.2-2.1-.2-2.1,0-1.1-.2-2.2-.2-2.5,0-1-.7-1.8-1.6-2.1-1.3-.3-1.9-.4-1.9-.2s-.1.1-.3,0c-.2-.1-1-.2-2.5-.1-1.3,0-2.3,0-2.4-.1,0-.1-1.4-.2-3.4-.1-1.8,0-3.4,0-3.6,0-.1,0-.9-.2-1.8-.2-2.3,0-3.1,0-3.1-.2s-.1-.2-.3-.2c-.4,0-.3.2-.4-3.5v-3s4.6,0,4.6,0c2.5,0,6.3,0,8.3-.1,5.8-.2,5.8-.2,6.6,1M271.8,133.4c-.1.4-.3,2-.3,2.7,0,.7-.8,3.1-1.3,4-1.2,2.2-3.1,1.3-1.9-.9.3-.6.7-1.5.9-2,.2-.9.3-1.1.4-1.9,0-.5,1-1.7,1.2-1.6,0,0,.4,0,.6-.3.6-.5.7-.5.5,0M210.9,141.3c-.2.1-.5.1-.7,0-.7-.2-.4-.4.3-.3.6,0,.7.1.4.3M209.1,143.2c-.1.3-.3.5-.4.5-.2,0,0-2.3.3-2.4.3-.2.4,1.4.1,2M215.6,141.4c0,.1,0,0,.3,0,.4-.2.5-.2.6,0,.3.5-.4,1.5-1.1,1.5-.8,0-.9-.3-.3-1.1.4-.6.8-.9.5-.4M228.4,142.7c-.2.9-1.7.9-1.6,0,0-.3.2-.5.3-.5s.3,0,.4-.2c.5-.7,1.1-.1.9.8M212.9,141.9c.4.3.3.8-.3,1.2-.7.4-1.1.3-1.1-.4s.7-1.2,1.4-.8M224.7,143c0,.4,0,.8-.1.8s-.2,0-.4,0c-1.3.3-1.6-.8-.3-1.5.7-.4.8-.2.8.7M221,142.8c.2.5-.2,1.1-.7,1.1-.6,0-.7-.4-.3-1,.3-.5.7-.6.9,0M217.9,143.5c.3.4.1.6-.7.6-.5,0-.8,0-.8-.3-.2-.6,1.1-.9,1.6-.3M280.9,155.8c1.4,2.2,3.3,5.8,4.3,8.5l.9,2.3-1.8,1.8c-1,1-2.4,2.5-3.1,3.4-.7.9-1.4,1.6-1.5,1.6s-.2,0-.2.2-.7,1.1-1.6,2.1c-.9,1.1-2.4,3-3.3,4.2-1,1.3-1.9,2.4-2,2.5s-.4.4-.5.7c-.2.3-.6.9-.9,1.2s-.6.7-.6.8c0,0-.2.4-.6.8s-.6.7-.6.7c.1,0-2.6,3.9-2.9,4.1-.2.1-.2.2-.2.2s0,.3-.3.7c-.7,1.2-.1,1,.9-.3.5-.7,1.2-1.4,1.4-1.7.3-.3.5-.5.5-.6,0-.1.6-.9,4.5-5.8.8-1,1.5-1.8,1.6-1.8s.2,0,0-.1c0,0,1.2-1.8,1.9-2.5s.4-.5.8-1c1.6-2.1,8.4-10.2,8.6-10.2.7,0,0,1.7-1.1,2.9-.4.4-1.4,1.5-2.1,2.3-.7.8-1.5,1.7-1.8,2-1.5,1.7-3.6,4.9-3.6,5.5s-.8,1.7-3.4,5.5c-.9,1.2-1.7,2.2-1.8,2.2s-.2,0,0,.1c.2.2-5.1,7.1-5.5,7.1s-.2,0-.2.2-.8,1.2-1.8,2.4c-3.7,4.7-4.3,5.6-3.9,5.9.3.3.3.3.5,0,.5-.9,3.3-4.4,3.4-4.4s.2,0,0-.1c0,0,.6-1,1.4-2.1,4.8-6,12.2-15.5,13.9-17.7,1.1-1.4,2-2.5,2.1-2.4,0,0,.1,0,0,0,0,0,0-.5.3-.9.3-.4.5-.8.5-1s0-.3.2-.3.7-.6,1.2-1.3c1.5-2,2.6-2.9,2.6-2.3,0,0,0,.5,0,1,0,1-.2,1.6-1.3,2.8-.5.5-1.3,1.5-1.9,2.2-.6.7-1.2,1.3-1.3,1.3s-.2,0-.2.2-.7,1.1-1.6,2.2c-1.5,2-6.5,9.1-8.9,12.5-1.2,1.8-1.5,2.5-.5,1.4.4-.4.7-.7.8-.6,0,0,.1,0,0-.1s.1-.4.4-.6c.3-.2.5-.4.4-.4s.3-.6.9-1.4c.6-.7,2-2.5,3.1-3.9,5.5-7.2,7.5-9.7,8-10.3.3-.4.6-.7.6-.8,0-.3,1.3-1.4,1.5-1.3.3.3.1,2.4-.3,3.1-.6.9-3.2,4-3.4,4s-.2,0-.2.2-.5.8-1.2,1.5c-.6.7-1.4,1.6-1.6,1.9-.3.3-.8,1-1.2,1.4-.4.4-.8.8-.8.9,0,.1-1.9,2.4-2.7,3.2-.3.3-1.7,2.1-3.3,4.1-1.5,2-2.9,3.7-3.1,3.8-.2.1-.3.3-.3.4,0,.3-2.9,3.9-3.1,3.9s-.1,0,0,.1c0,0-.2.6-.7,1.2-.4.6-.7,1.2-.7,1.3.1.2.7-.2.7-.5s.2-.4.5-.7,1.6-1.9,2.9-3.6c3.5-4.5,5.8-7.2,6.2-7.4.2-.1.4-.3.4-.4,0-.2.7-1,3.1-3.8.3-.4,1.1-1.2,1.7-1.9.6-.7,1.4-1.5,1.7-1.9.4-.4.7-.7.7-.8,0-.1,1.8-2.2,3-3.5.4-.4.8-.8.8-.9,0-.3.6-1,.8-1s0,4.7-.2,5.2c0,0,0,.2,0,.2,0,.3-.8,3.8-1.3,5.2-.4,1.3-.7,1.7-1.4,2.3-.5.4-2,2.2-3.4,4-1.4,1.8-2.6,3.3-2.7,3.3s-.2.2-.3.4c0,.2-.4.8-.8,1.3-.7,1-.9,1.7-.5,1.7.1,0,.5-.4.8-.8.3-.5.8-1.2,1.2-1.6.4-.4,1.1-1.4,1.7-2.1.6-.7,1.7-2.2,2.5-3.2s1.5-1.8,1.5-1.8c.2.2-1,2.7-1.2,2.7s-.1,0,0,.2c.2.4-3.7,6.4-4.1,6.4s-.2,0,0,.1c.2.2-3.2,4.2-3.7,4.4,0,0-.8.7-1.5,1.4-1.5,1.5-3.4,3-3.7,2.9,0,0-.2,0-.2.2s0,.2-.2,0c-.1,0-.3,0-.4.2-.1.2-.2.3-.3.2,0,0,.4-.7,1-1.4,1.1-1.3,1.3-1.6.9-1.6s-2.4,2.2-3,3.1c-.5.7-3.8,3.1-4.4,3.1s-.4,0-.5.2-.2.2-.3,0c-.1,0-.2,0-.2,0s-.1.2-.3,0c-.2,0-.4,0-.4.2,0,.2-.3.3-.4.2s-.3,0-.3.1,0,.1-.2,0-.3,0-.5,0c-.1.1-.5.3-.7.3-.3,0-.5.2-.6.2,0,0-.2.2-.4.2-.2,0-1,.3-1.9.7-3,1.1-3.3,1.2-12.6,1.2-8.1,0-9.1,0-9.3-.7,0-.3,1.8-2.3,5.7-6,.8-.8,1.5-1.5,1.7-1.8.1-.2.3-.3.4-.3,0,0,.2,0,.2-.2,0-.4-.3-.4-1,.3-.4.3-.7.6-.8.6,0,0-.6.4-1.1,1-.5.5-1.9,1.8-3.1,2.9-2.2,2-2.9,2.7-4.4,4.1-.5.5-1,.9-1.1.9-.1,0-.4.2-.6.5-.2.3-.5.5-.6.5s-.3.1-.3.2,0,.2-.1.1c0,0-.4,0-.7.2-.4.3-.6.3-.8,0s-.5-.2-.8-.2q-.5,0,.2-.6c.4-.3,1.7-1.6,2.9-2.8,1.2-1.2,2.3-2.3,2.5-2.2.1,0,.4-.2.5-.5.1-.3.4-.6.6-.6.2,0,.3-.1.3-.2s.3-.6.8-1c1.5-1.3,2.2-2.2,1.7-2.2-.2,0-.5.2-.5.3,0,.1-.2.2-.3.2-.1,0-.3,0-.4.3-.1.2-.3.4-.3.3,0,0-1,.8-2.1,1.8-1.1,1.1-2,1.9-2.1,1.8,0,0-.3.2-.6.6-.3.4-1.1,1.2-1.6,1.8-.6.6-1.4,1.6-1.7,2.1l-.7,1h-1.6s-1.6,0-1.6,0l1.3-1.3c.7-.7,1.3-1.3,1.4-1.2s.3-.1.5-.4c.2-.3.9-.7,1.4-1,2.4-1.4,3.3-4.5,2.1-7.1-.5-1.1-1.9-2.8-2.3-2.8s-.2,0-.2-.2,0-.2-.2,0c-.1,0-.2,0-.3-.1-.1-.4-3.6-.4-3.7,0,0,.1-.2.2-.3.1,0,0-.3,0-.4.3-.1.2-.3.4-.5.4-.2,0-1.2,1.4-1.4,2,0,.2-.2.6-.3.9-.1.3-.3.8-.3,1.2-.2,1.8-5,6.9-6.5,6.9s-.4-1.4,2-3.8c3-3,2.9-3,2.7-3.2s-.5,0-.9.5c-.4.4-1.1,1-1.7,1.4-.6.4-1,.9-1.1.9,0,0-.2.2-.3.2s-.3,0-.3.2c0,.1-.3.2-.6.3-1.1.2.3-1.7,3.5-4.7,1.2-1.1,2.2-2.2,2.2-2.4,0-.3,0-.3-.2,0-.1.2-.2.2-.2.2,0,0-.2,0-.4.2-.8.7-3.5,2.7-3.7,2.7,0,0-.2,0-.2.3s0,.3-.2.2c0,0-.2,0-.3.2-.1.4-.9.4-.9,0s.1-.4.3-.6c1.5-1.2,1.8-1.8.9-1.7h-.6c0,0,0-3.4,0-3.4,0-1.9,0-3.5.1-3.5.2-.1,8-.1,20.5,0,8.1,0,12.7-.2,12.9-.7,0-.1.1-.1.2,0,.1,0,.2,0,.2-.1s.2-.2.4,0c.2,0,.4,0,.4,0s0-.2.2-.1.2,0,.2,0,0-.2.2-.2c.3,0,3.3-1.5,4.4-2.3.4-.3.7-.5.8-.5s.4-.2.7-.5c.3-.3.5-.4.4-.2,0,.2.2,0,.6-.5.4-.4,1.2-1.2,1.8-1.7,1-.9,3.1-3.2,3.1-3.4s.3-.5.7-1.1c.8-1.3,2.5-4.7,3-6.1.2-.5.4-1.1.5-1.2,0-.1.1-.3,0-.3,0,0,0-.3,0-.5.2-.5.3-1.1.4-7.2.1-5.3.1-5.4.6-5.8.6-.5,2.3-2.5,4.6-5.4,1-1.2,2-2.3,2.2-2.5.3-.2.5-.4.5-.6s.4-.6.9-1c1.1-.9,2.9-3.6,4.2-6.3,1.2-2.4,1-2.4,2.3-.5M232.7,154.9c1.9,0,4,.1,4.6.2.8.1,1.1,0,1.1,0s.1-.2.4,0c.2.1.7.2,1.2.2.4,0,.9,0,1,.1.2.1.3,0,.4-.1.1-.2.2-.2.2,0,0,.2.2.2.5.2.3,0,.5,0,.6,0,0,0,.4.2.9.2.5,0,.8.1.8.2,0,0,0,.1.2,0,.3-.2,4.9,2.3,5.7,3.1.4.4.7.6.7.5,0,0,.2,0,.4.3.2.3.4.4.4.3s.7.5,1.6,1.3c.9.8,1.6,1.5,1.6,1.7s.2.3.4.5c1.1.7,4.9,8,5.1,9.9,0,.4.1.9.2,1,.3.4.4,5.2.2,7-.5,4.6-3.6,11.2-6.9,14.4-2.2,2.2-5.7,4.6-6.2,4.3,0,0-.2,0-.2,0s-.2.2-.4.2c-.2,0-.5.1-.6.3,0,.1-.2.2-.2.1s-.2,0-.5,0c-.2.1-.6.3-.9.3-.2,0-.7.2-1.1.4-.4.2-1.2.3-1.7.4-.5,0-1.3.2-1.8.3-1.4.3-3.3.3-11.6.3h-5.9v-6.3h4.7c4.7,0,6.2-.2,6.6-.9,0-.1.2-.2.3-.2.3.2,1.9-2.6,1.8-3.1,0,0,0-.4.2-.8.7-2.4.7-8.1,0-9.9-.9-2.1-2.7-4-3.8-4-.1,0-.5-.2-.8-.3-.5-.3-1.4-.3-4.8-.4h-4.2c0,0,0-3.3,0-3.3,0-5,.3-15.3.4-16.7,0-.7,0-1.4.1-1.4,0-.2.8-.3,3.4-.2,1.4,0,4.1,0,6,.1M215,163c0,5.3.1,6.7.5,6.4s.3-1.8.4-6.9c0-5.4.1-5.9.8-5.6.3.1.3.9.2,7.9,0,4.3,0,8.6-.1,9.6v1.8s-1.8,0-1.8,0c-3,0-3.2-.6-3.1-7.5,0-2.5.1-4.6.2-4.7s.1-.8.1-1.5c0-.7,0-2,.1-2.8,0-.8.1-1.7.1-1.9,0-.4.1-.5.9-.6.5,0,1-.2,1.1-.2.4-.1.5.4.5,6.1M220.8,157.6c.4.6.2,11.1-.2,16.2,0,.7-.1,1.4-.1,1.6,0,1.4-.7,2.9-.8,1.8,0-.2,0-.7,0-1-.2-1.8,0-14.2.1-14.2s0-.4,0-.8c0-.4.1-1.2.2-1.6.2-1.3.3-1.6.3-1.9,0-.3.3-.3.5,0M162.5,162.9c.6.2,1.2.3,1.4.3.1,0,.2,0,.2.2s0,.1.2,0,.2,0,.2,0,.2.3.5.3c.3,0,.5.3.6.4,0,.2.2.2.3.2.1,0,.2,0,.2,0s.1.2.3.2.8.6,1.6,1.3c2.9,3,2.8,3.6-1.4,8-.2.3-.4.5-.4.6,0,.2-3.1,4.1-3.4,4.3-.2.1-.4.4-.4.5s-.1.3-.3.3-.3.1-.4.3c-.2.4-1.7.4-2.6,0-.4-.2-.8-.3-.8-.3s-.1,0-.1-.1-.4-.3-.9-.4c-.5-.1-1.2-.3-1.6-.5-.4-.2-.8-.2-.9-.2,0,0-.1,0-.1-.1s-.1-.2-.3-.1c-.2,0-.3,0-.3,0s0-.2-.2,0c-.1,0-.2,0-.3,0,0-.1-.3-.2-.5-.3-.9-.2-1.8-1.3-1-1.3s.1-.1,0-.3c-.2-.4,1.6-7,2.5-9.6.2-.6.6-1.4.9-1.6.2-.2.5-.6.6-.8,0-.2.2-.3.3-.2.1,0,.3,0,.4-.3.1-.2.3-.4.4-.3s.2,0,.3,0,.3-.2.5-.2.4,0,.4-.2c0-.3,2.9-.2,4,0M260,166.2c.8.6,1,1.1.4.8-.4-.1-1.5-1.1-1.5-1.3s.3-.1,1.1.5M176.5,171.9c.7.6,1.2,1.2,1.1,1.4s0,.1,0,0c.2-.1,2.5,2.1,2.5,2.3s-1.5.1-3.4.2h-3.4c0,0,0-.7,0-.7,0-.4,0-.8,0-.8,0,0-.1-.4-.1-.8,0-.4,0-.7,0-.8-.1-.2-.2-.8-.3-2.9v-1.5c0,0,1.1,1.2,1.1,1.2.7.7,1.8,1.7,2.5,2.4M262.9,171.5c.3.8.4,1.7,0,1.7-.7,0-1.4-1-1.4-2s1-.5,1.3.3M264.1,179c.2,1.8,0,2.8-.8,2.8s-.7,0-.4-2.2c.3-2.3,1-2.6,1.2-.6M195.1,178.1c9.6,0,22,.2,27.4.2h9.9c0,.1.5.7.5.7.5.5,1.3,2.1,1.2,2.4,0,0,0,.4.2.7.4,1,.5,1.9.2,1.9-.2,0-1.2,0-2.3,0-1.1,0-13.2.1-27,.1-26.5,0-26.7,0-26.6.5,0,.2.5.3,1.7.3,6.3,0,41.2.2,43.8.3,1.7,0,3.2,0,3.2,0s.5,0,1.1,0c.6,0,1.7.2,2.4.2,1.6,0,3.1.1,3.2.3,0,0,.3.1.5.1.4,0,.5.3.1.3-3.5.2-9.5.3-32.1.3-26.9,0-29.5,0-30.4-.3-.6-.2-.6-.4,0-.5.2,0,.5-.1.6-.2,0,0,.7-.2,1.5-.2,1.5,0,2.5-.2,2.7-.2,0,0,.3,0,.5,0s.4-.2.4-.3c0-.3-1.9-.4-4.6-.1-.9,0-1.3,0-1.2,0,.1-.2.2-.7.4-1.8,0-.3.1-.6.2-.8,0-.2,0-.5,0-.8,0-.3,0-.6,0-.7.1-.2.1-.4.2-1.6v-.8s2.4,0,2.4,0c1.3,0,10.2,0,19.8.1M143.7,178.2s-.3.6-.6,1.2c-.3.7-.9,2-1.2,3l-.6,1.8h-2.2c-2,0-3.8.2-4.1.3-.2,0-.5.1-1,.2-.7,0-.6.8.1.8.3,0,1.9,0,3.5,0,3.1,0,3.3.1,2.9.5-.4.3-6.9.7-7.2.4,0,0-.1-1-.2-2.1,0-1.1-.2-2.3-.3-2.7s-.1-.8,0-.8,0-.1,0-.1c-.2,0-.8-2-.7-2.2,0,0,.7-.1,1.5-.2.8,0,1.5,0,1.5-.1,0,0,8.7,0,8.7,0M129.3,178.8c.5.5,1,1.6,1.1,2.5,0,.3,0,.6.1.6s0,.2.1.4c0,.2.1.8.2,1.2.6,3.9,0,7.4-1.8,9.5l-.7.8-.5-.9c-1.3-2.2-1.7-6.2-1-10,.6-3.2,1.1-4.4,1.9-4.5,0,0,.3.2.6.4M263.6,183.5c0,1.8-.4,3-1.3,3.2-.6.2-.6-.6-.1-2.5.4-1.5,1.4-1.9,1.4-.7M261.7,188.8c0,1.9-4.2,7.1-8.3,10.1-.9.7-.7.2.3-.8,1.2-1.1,3.6-3.7,3.6-3.9s.3-.6.8-1.2c.4-.6,1-1.5,1.2-2,.3-.5.5-.9.6-.9s.2-.1.2-.3c0-.3,1.2-1.7,1.4-1.7,0,0,.2.3.2.6M139.9,188.9c0,0-.1.1-.5.2-.6,0-.9,0-1.1.2-.3.1-4.6.2-5.1,0-.6-.1-.5-.1.4-.3,1-.2,6-.3,6.3,0M229.2,188.9c2.2,0,4,.1,4,.2,0,.6-59.3.5-59.5-.1,0-.2,45-.2,55.6,0M124.7,191.9c0,1,0,1-2.3,3.3-1.3,1.2-2.6,2.6-3,3-2.7,2.9-3.2,3.4-3.3,3.3s-.1,0-.1.2-.2.4-.3.6c-.2.2-.6.6-.8.8-.5.6-1,.7-1.1.3-.1-1.1,0-1.5.3-2.1.6-1,1.6-2.2,1.8-2.1.1,0,.1,0,0-.1-.3-.5,3.5-3.6,3.9-3.3.3.2.8-.4.6-.8,0-.2,0-.4.2-.6.6-.6,1.1-1,1.3-1,.3,0,.8-1,.8-1.5s.2-.6.4-.8c.2-.2.4-.3.3-.3s0-.1,0-.3.3-.2.4-.2c0,0,.2,0,.3-.2.2-.6.4.5.4,1.8M136.5,192.5c2.5.3,3.8,1.4,2,1.8-.8.2-6.5,0-7-.1-.8-.3,0-1.4,1-1.6.4,0,.7-.1.7-.2,0,0,2.3,0,3.3.1M214.9,192.6h19.3l-.9.8-.9.8h-30.2c-16.6-.2-30.4-.3-30.8-.3-.3,0-.8,0-1.1,0-.5,0-1-.8-.4-.8,0,0,.3,0,.5-.1.2,0,3.7-.1,7.7-.2,4,0,7.4-.1,7.6-.2.2,0,2.5,0,5.1,0,2.6,0,13.5,0,24.1,0M125.6,194.8c-.2.3-.5.7-.8.9-.2.2-.4.4-.4.5s-.5.7-1.1,1.4c-.6.7-1.3,1.5-1.6,1.8-1,1.1-3.1,3.9-3.5,4.6-.5.8-2,2.6-2.2,2.6s0-.3,0-.6c0-.4,0-.7-.2-.9-.6-.5-.4-1.3.3-2.1.4-.4.7-.8.7-.8s.2-.3.4-.4c.2-.2.6-.6,1-1,.4-.4.7-.7.8-.7s.2-.1.2-.3.3-.5.6-.8c.3-.3.6-.5.6-.5s.8-.7,1.8-1.7c1-1,1.9-1.7,2-1.7,0,0,.3,0,.4-.3.1-.2.4-.4.6-.4s.4,0,.4-.2,0-.2.2,0c.1,0,0,.3-.1.7M117.7,195.4c0,.1-1.2,1.4-2.6,2.9-1.4,1.5-2.6,2.6-2.6,2.5s0,0-.2,0c-.2.3-.8.1-.8-.3s.1-.4.3-.6c.2-.2.2-.3.2-.3s0-.2.2-.4c.2-.2.4-.4.5-.4.3,0,.6,0,1-.4.2-.2.4-.4.4-.3s.2,0,.5-.3c2.4-2.2,3.1-2.7,3.1-2.4M189.1,195.9c0,.5-1.1,2-2.4,3.3-.6.7-1.2,1.3-1.3,1.5-.1.3-1.1.6-1.3.4-.5-.5,3.9-5.5,4.8-5.5s.2.1.2.3M128.2,196.3c-.1.7-1.3,2.1-4.4,5.2-1.6,1.6-3,3.1-3,3.2s0,.1-.1,0c0,0-.3,0-.4.2s-.2.3-.1.3-.3.5-.8,1c-.9,1-1,1.3-.9,1.9,0,.1-.4.9-.8,1.6l-.9,1.3v-.7c-.1-.5,0-.9.3-1.3.3-.4.3-.6.2-.7-.3-.2-.3-.9,0-.9s.2,0,0-.2c-.1-.2,1.6-2.8,2.9-4.4.4-.5.8-1,.9-1.1,1.4-1.9,4.2-4.7,4.7-4.7s.6-.2.9-.5c.8-.8,1.7-.9,1.6-.2M181.5,196.1c.3.8-1.2,2.2-2.1,1.9-1.2-.4.1-2,1.9-2.2,0,0,.2.1.3.3M131.5,196.2c0,.5-5.1,5.8-5.5,5.7,0,0-.2,0-.3.3-.2.5-2.1,1.3-2.1.9s6.2-6.4,6.9-6.7c.7-.3.9-.4.9-.1M172.7,196.7c-.2.3-.6.7-.9,1.1-.3.4-1,1.2-1.6,1.8s-1.1,1.2-1.2,1.2c-.1,0-.4.2-.7.5-.6.6-.8.6-.8,0,0-1.4,2.9-4.7,4.5-5.1,1-.3,1.1-.2.7.4M195.9,196.8c0,.7-1.2,1.2-1.2.6,0-.1,0-.4,0-.6,0-.2,0-.4.1-.5.2-.3,1.1,0,1.1.5M134.9,196.7c-.4.7-2.4,3.2-2.6,3.2s-.2,0,0,.1c.1.1-3.6,5.1-3.9,5.2,0,0-.2.1-.2.3,0,.2-3.1,4.7-4.5,6.5-.7,1-1.9,2.1-1.9,1.9s-.2-.2-.4-.2c-.4,0-.4,0-.1-.5.2-.2.4-.4.6-.4.1,0,.2,0,.1,0-.2-.2.2-.7.5-.6,0,0,.2,0,.1,0,0,0,0-.4.2-.6.3-.6,0-.8-.7-.4-.3.2-.5.3-.6.2-.1-.1,1.5-2.5,1.9-2.7.2-.1.3-.3.3-.3-.2-.4,7.4-9,7.8-8.8,0,0,.2,0,.2-.2s0-.3.2-.2c.1,0,.3,0,.3-.2,0-.2.2-.3.3-.2.2.1.9-1,1.1-1.7.2-.6.4-.8,1.2-.8.5,0,.5,0,.3.4M169.5,196.4c0,.1-.3.5-.7.9l-.7.7v-.6c.2-.3.3-.7.3-.9,0-.2,0-.3,0-.4,0-.2,1,0,1,.2M185.1,196.3c0,.7-2.3,2.8-3.1,3-.9.1-1.1-.5-.4-1.2,1.2-1.2,3.5-2.4,3.5-1.8M191.9,197.2c-.4.8-2.4,3.2-2.6,3.1,0,0-.2,0-.2.2,0,.6-2.3,2.4-2.7,2-.3-.3,1.7-3,2.1-2.9.1,0,.1,0,0-.1-.1-.2,2.3-2.6,2.9-2.8.6-.2.6-.2.3.5M176.1,197.5c0,.3-.5,1.1-.6,1.1s-.1,0-.1.2c0,.2-.8,1.4-1,1.3,0,0,0,0,0,0,0,0-.5.7-1,1.3-.6.7-1,1.3-1,1.4,0,.1-2.4-.4-2.6-.5,0,0,.7-.9,1.7-1.9,1-1,1.8-1.7,1.9-1.7,0,0,.2,0,.4-.3.7-.7,2.4-1.4,2.4-1M136.5,197.9c0,.5-.8,1.9-1,1.9s-.2,0-.1.2c0,.1,0,.3-.1.3-.1,0-.4.4-.5.7-.5,1.1-6.5,7.8-7,7.8,0,0-.1,0-.1.2s-.2.4-.4.7c-.6.9-.1,1.4.6.7.5-.5.2.3-.8,2-1.4,2.5-1.6,2.7-2.3,2.6-.6-.2-.6-1,0-1.8.2-.3.4-.8.4-1.1,0-.8,4.7-8,5.2-8s.2-.1.2-.3c0-.3,3.6-4.9,3.8-4.8,0,0,.2-.1.3-.4,0-.2.2-.4.4-.4s.3-.1.4-.3c.1-.4.9-.4.9,0M216.6,199.1c0,1.7,0,2.1.3,2.7.2.7,0,.7-2.9.6h-2.4v-1.4c0-1.5.3-2.2,1-2.2s.4,0,.4-.2.1-.1.3,0c.2,0,.3,0,.3,0s.2-.2.6-.2c.8,0,1.2-.1,1.3-.2.6-.6,1.1,0,1.2,1.1M220.6,200.6c0,1,0,1.9,0,2,0,.3-.6-.5-.7-1.1-.4-1.9-.2-3.1.4-2.9.4.1.4.3.4,2M138.5,199.5c-.1,1.2-1.4,3.7-3.2,6.4-.9,1.3-2.4,3.5-3.4,4.9-1,1.5-1.9,2.6-2,2.6s-.2,0-.1.2c.2.7-1.5,2.6-2.2,2.4-1-.2-1-.2,0-1.8.5-.8.9-1.5.8-1.7-.1-.4,1.2-2.6,2.3-3.7.5-.5.9-1,.9-1.1s.5-.6,1.1-1.1c1.2-1,1.9-2,2-2.8.2-.9,1.2-2.6,2.6-4.4.9-1.1,1.3-1.1,1.2,0M193.8,199.3c0,.2,0,.5-.3.8s-.3.4-.3.5c.3.3-1.9,2.1-2.8,2.3-1.1.3-1.2.2-1.1-.5.1-.5,2.1-2.5,2.4-2.5,0,0,.2,0,.3-.2.5-.7,1.5-1,1.7-.4M178,200.3c0,.2-.2.6-.4.7-.2.1-.3.2-.2.2.3,0-2.5,3.4-4.4,5.4-1.2,1.2-1.9,1.1-1.9-.3s.8-1.8,1.1-1.5.7-.5.7-1c0-.9,3.1-3.8,4.2-3.9.2,0,.5-.1.5-.2.2-.2.4.1.3.6M195.3,201.7c-.5.2-1.3.5-1.8.6l-.9.2.8-.9c1.1-1.2,1.6-1.3,2.2-.8l.5.4-.8.4M180.1,201.8c0,.1-.4.8-.9,1.6-1.3,2-.3,2.3,1.4.3.3-.3.6-.6.6-.5s.2,0,.4-.2c1.1-1,1.8-.2,1,1.2-.6,1.2-.1,1.7.7.7.2-.2.5-.4.6-.4s.3,0,.3-.2.3-.2.7-.2c.8,0,1,.8.3,1.5-.4.4-1,1.5-1,1.8,0,.4.7,0,1.8-1.2,1.4-1.4,1.8-1.5,2-.5.2.8-.2,1.5-1.1,2.5-.4.4-.6.7-.6.7,0,0,0,.1-.2.2-.4.3-.5,1.2-.2,1.1.1,0,.6-.4,1.1-.8,1.9-1.7,2.8-.8,1.4,1.4-1.1,1.5-2,3.4-1.8,3.6,0,0,.2,0,.2,0,.4-1.1.7-.8,1.1.8.4,2-.8,4.6-2.1,4.4-.1,0-.5.3-.8.6-.6.8-.9.8-3.1-.4-1.5-.8-1.6-.9-.9-2.1.7-1.2,0-1.8-.7-.7-1.1,1.4-2.1.5-1.4-1.3.4-1,0-1.4-.8-.7-1.3,1.2-2.2.2-1.3-1.5.6-1.1.3-1.8-.5-1.1-.9.9-1.8.3-1.6-1.1.1-1.2,1.5-3.4,1.9-3.1.3.2.9-1.1.6-1.4-.1-.1-.5,0-1.3.8-.6.6-1,1-1,1s-.1.3-.4.6c-.8.8-1.5.8-1.5,0s1.3-2.6,1.6-2.6.2,0,.1-.2c-.1-.2,2.6-3.2,3.8-4.2.9-.8,1.7-1.1,1.7-.6M166.3,204.1c0,.1-.3.7-.6,1.1-1.2,1.6-1.7,2.9-1.4,3.4.2.3,1-.3,1-.7s1.1-1.7,1.6-2.2c.7-.8,1.6,0,1.6,1.5s-1.9,3.7-2.5,3.7-1.3-.7-1.3-1.1,0-.2-.2-.2c0,0-.5-.3-.8-.7l-.6-.8.9-1.7c1.3-2.3,2.3-3.3,2.3-2.2M124.7,205c0,.3-2.8,3.9-3.2,4.2-.2,0-.2.2-.2.2.2,0-1.7,2.5-2.6,3.4-.4.4-.6.6-.6.4.1-.3.1-.3-.1,0-.3.3-1.1.3-1.4,0,0,0,0-.2.3-.3.6-.2,2-2,1.6-2.1-.3-.1-.3-1.1,0-1.1s.2,0,.1-.2c-.1-.2.8-1.6,1.1-1.6s.2-.1.2-.2c0-.7,2.2-2.2,3.7-2.7,1.1-.3,1.1-.3,1.1,0M212.6,207.6c0,1.5,0,3-.1,3.4s-.2,1.1-.2,1.7c-.4,3.1-.9,1.7-.9-2.6,0-3.6.3-5.4.9-5.3.4,0,.4.2.4,2.8M169.9,209.1c.7,1-1.1,3.7-2.5,4-.9.2,0-2.3,1.2-3.8.7-.8.9-.9,1.3-.2M133.7,211.1c-1.7,3.5-3.8,6.4-4.6,6.3-.4,0-.4,0,.1-.6.3-.3,1.2-1.7,2-2.9,2.3-3.9,3.9-5.7,2.5-2.7M162.9,211.4c.3,1,.2,1.5-.6,2.5-1.1,1.4-1.5.9-.8-1.1.2-.6.5-1.3.6-1.6.3-.7.5-.7.8.2M227.3,211.4c1.2.9,2.1,3.2,1.6,3.7-.2.2-1.4-.5-1.4-.7s-.1-.2-.3-.2-.3-.2-.4-.4c0-.2-.2-.4-.2-.3-.1.1-2.8-2.1-2.7-2.3.2-.8,2.4-.7,3.5.2M171.8,213c-1,1.9-3.3,4.8-3.6,4.5-.6-.9,2.2-6,2.8-5.3,0,0,.1,0,.1,0s.1-.2.5,0l.5.2-.4.7M190.2,212.4c.3.7.4,2.4.2,2.4s-.4-.5-.8-1.1c-.3-.6-.7-1-.7-1-.5.2-.7,0-.4-.4.5-.7,1.4-.7,1.7,0M223.4,213c0,.1.2.2.3.2.2-.1,3,2.7,3,3s.1.3.3.3c.2,0,.3.2.2.3,0,.1,0,.2.1.2.5,0,0,.5-.6.5-.4,0-.7.2-.8.3,0,.1-.2.2-.3,0,0-.1-.3-.2-.5-.1-.2,0-.5,0-.7-.2-.1-.1-.4-.3-.7-.5-.2-.1-.6-.6-.8-1-.9-1.5-.5-4.5.4-3.1M173.5,215.3c0,.5-1.1,2.3-1.4,2.3s-.2,0-.1.2c0,0-.2.5-.5.8-.8,1-1,1.5-.8,1.8.2.3.4,0,2.3-2.1.5-.6,1-1.1,1.1-1.1,0,0,.3,0,.4,0,.3-.2,1.2.5,1.2.9s-.9,2.1-1,2.1-.2,0-.2.2c0,.4.7.2,1.2-.3,1.2-1.1,2.1-.7,1.8.6-.2.8.3,1.6.7,1,.1-.2.4-.3.7-.2.3,0,.7.1.9.1.2,0,.4.1.4.2s0,.1.1,0c0,0,.7.2,1.5.6.8.4,1.5.7,1.8.7.8,0,.8,1.2.1,2-.5.6-1.5,3.4-1.5,4.3,0,.3,0,.6-.2.7,0,.1-.1.9,0,1.8,0,2.4,0,2.6-1.4,2.4-2-.2-4.2-1.1-5.1-2-.2-.2-.4-.3-.4-.2s-.6-.5-1.4-1.2c-2.4-2.4-3.7-5.3-4.6-9.4-.5-2.6-.6-2.5.5-3.8.5-.6,1.4-2,2-2.9l1.2-1.8.5.9c.3.5.5,1.1.5,1.3M165.1,214.1c0,.5-1.8,3.5-2.2,3.5s-.2.1,0,.2c0,.1,0,.2,0,0-.1,0-.3,0-.3,0-.6.9-.7-.9-.1-2.1.8-1.8,2.6-3,2.8-1.8M212.5,215.2c0,.5-.7,1.2-1.1,1.2s-.4-.5.3-1.1c.7-.6.8-.6.8-.1M165.8,216.8c.1,1.1,0,1.7-.6,3-.7,1.5-2,3.2-2.3,2.9-.3-.3-.1-1.9.3-2.9.4-1.1,1.5-2.6,1.6-2.4,0,0,.2,0,.4-.3.3-.4.6-.5.6-.2M220.9,217.8c0,.2-.9,1.2-1.9,2.2-1,1.1-1.9,1.8-1.9,1.7s-.1,0-.3.2c-.2.2-.3.3-.3.2,0,0-.2,0-.4.3-.2.3-.4.4-.4.3,0-.1-.1,0-.3.2-.2.2-.3.3-.3.2s-.2,0-.5.1c-.6.3-1.1.4-1.1,0,0-.4.8-1.5,1.2-1.7.2-.1.4-.3.4-.5s.2-.4.4-.6c.2-.2.9-.7,1.3-1.1.5-.5,1-.8,1-.8s.3-.1.5-.3c1.1-1.1,2.5-1.4,2.5-.6M212.4,217.9c0,1.3-.3,1.7-1.2,1.9-.1,0-.2,0-.2-.3,0-.4.7-1.6,1-1.6s.2-.1.2-.3,0-.3.2-.3.2.3.1.7M189.4,219c1.4,1.5,1.3,2-.3,2.4,0,0-.4.1-.7.2-1.6.5-1.8-.4-.6-2.1,1-1.3.9-1.3,1.6-.6M222.9,219.2c0,.3-2.8,3-3,2.9,0,0-.2,0-.4.3-.2.2-.4.4-.4.3,0,0-.2,0-.3.2,0,.2-.2.3-.3.3,0,0-.2,0-.3,0-.5.2-1.2.2-1.2,0,0-.3,1.4-1.9,1.6-1.8.1,0,.3-.2.5-.4.2-.3.5-.5.6-.5s.3,0,.3-.2.3-.3.6-.4c.3-.1.6-.3.6-.4,0-.2.5-.3,1.1-.4.2,0,.4,0,.4.2M225.3,220c0,.3-1.5,2-1.7,1.8,0,0-.2,0-.3.3-.1.2-.3.4-.4.3,0,0-.2,0-.3.2,0,.1-.5.4-1,.5-1,.3-1.1.3-1.1,0s1.4-2,1.6-2,.3-.1.3-.3c.5-.7,2.8-1.4,2.8-.8M212.4,222.3c0,.6-.7,1.3-1,1.3s.1-2.1.4-2.4c.4-.5.7.1.5,1.1M166.6,222.3c0,1.6-1.7,4.8-2.3,4.2-.9-.9.6-5.5,1.8-5.4.4,0,.5.1.5,1.1M167.8,226c.6,2.6-.2,4.3-1.4,3.1-.7-.6-.4-4.2.3-3.8,0,0,.2,0,.3-.1.2-.3.6.1.8.8M184.6,227.9c0,.2-.2.9-.2,1.4,0,1.1-.2,2.1-.4,2.8-.1.4-.2.6-.2,1,0,.1-.1.2-.2.2-.2,0-.2-2.4,0-2.7,0-.1,0-.4,0-.6,0-.6.7-3,.9-2.8.1,0,.1.3,0,.6M169.8,230.6c.6,1.1.5,1.4,0,1.1-.2,0-.4-.1-.5-.1,0,0-.1,0-.1-.2s-.1-.2-.2-.1c-.3,0-.4-.9-.2-1.5.3-.7.4-.6,1.1.8"/>
  </g>
</svg>